<?xml version="1.0" encoding="UTF-8" standalone="no"?>
<!-- Created with Inkscape (http://www.inkscape.org/) -->

<svg
   width="60.0px"
   height="60.0px"
   viewBox="0 0 60.0 60.0"
   version="1.1"
   id="SVGRoot"
   sodipodi:docname="filesbscolorful.svg"
   inkscape:version="1.2 (dc2aedaf03, 2022-05-15)"
   xmlns:inkscape="http://www.inkscape.org/namespaces/inkscape"
   xmlns:sodipodi="http://sodipodi.sourceforge.net/DTD/sodipodi-0.dtd"
   xmlns:xlink="http://www.w3.org/1999/xlink"
   xmlns="http://www.w3.org/2000/svg"
   xmlns:svg="http://www.w3.org/2000/svg">
  <sodipodi:namedview
     id="namedview40536"
     pagecolor="#505050"
     bordercolor="#eeeeee"
     borderopacity="1"
     inkscape:showpageshadow="0"
     inkscape:pageopacity="0"
     inkscape:pagecheckerboard="0"
     inkscape:deskcolor="#505050"
     inkscape:document-units="px"
     showgrid="true"
     inkscape:zoom="8"
     inkscape:cx="20.875"
     inkscape:cy="28.75"
     inkscape:window-width="1920"
     inkscape:window-height="1009"
     inkscape:window-x="-8"
     inkscape:window-y="115"
     inkscape:window-maximized="1"
     inkscape:current-layer="layer1">
    <inkscape:grid
       type="xygrid"
       id="grid40659" />
  </sodipodi:namedview>
  <defs
     id="defs40531">
    <linearGradient
       inkscape:collect="always"
       id="linearGradient45685">
      <stop
         style="stop-color:#1acdff;stop-opacity:1;"
         offset="0"
         id="stop45681" />
      <stop
         style="stop-color:#1a83ff;stop-opacity:1;"
         offset="1"
         id="stop45683" />
    </linearGradient>
    <inkscape:path-effect
       effect="fillet_chamfer"
       id="path-effect41209"
       is_visible="true"
       lpeversion="1"
       nodesatellites_param="F,0,0,1,0,4,0,1 @ F,0,0,1,0,4,0,1 @ F,0,0,1,0,4,0,1 @ F,0,0,1,0,4,0,1"
       unit="px"
       method="auto"
       mode="F"
       radius="4"
       chamfer_steps="1"
       flexible="false"
       use_knot_distance="true"
       apply_no_radius="true"
       apply_with_radius="true"
       only_selected="false"
       hide_knots="false" />
    <inkscape:path-effect
       effect="fillet_chamfer"
       id="path-effect41152"
       is_visible="true"
       lpeversion="1"
       nodesatellites_param="F,0,0,1,0,0,0,1 @ F,0,0,1,0,0,0,1 @ F,0,0,1,0,0,0,1 @ F,0,0,1,0,0,0,1 @ F,0,0,1,0,0,0,1 @ F,0,0,1,0,0,0,1 @ F,0,0,1,0,0,0,1 @ F,0,0,1,0,0,0,1 @ F,0,0,1,0,0,0,1 @ F,0,0,1,0,0,0,1 @ F,0,0,1,0,0,0,1 @ F,0,0,1,0,0,0,1 @ F,0,0,1,0,0,0,1 @ F,0,0,1,0,0,0,1 @ F,0,0,1,0,0,0,1 @ F,0,0,1,0,0,0,1 @ F,0,0,1,0,0,0,1 @ F,0,0,1,0,0,0,1 @ F,0,0,1,0,0,0,1 @ F,0,0,1,0,0,0,1 @ F,0,0,1,0,0,0,1 @ F,0,0,1,0,0,0,1 @ F,0,0,1,0,0,0,1 @ F,0,0,1,0,0,0,1 @ F,0,0,1,0,0,0,1 @ F,0,0,1,0,0,0,1 @ F,0,0,1,0,0,0,1 @ F,0,0,1,0,0,0,1 @ F,0,0,1,0,0,0,1 @ F,0,0,1,0,0,0,1 @ F,0,0,1,0,0,0,1 @ F,0,0,1,0,0,0,1 @ F,0,0,1,0,0,0,1 @ F,0,0,1,0,0,0,1 @ F,0,0,1,0,0,0,1 @ F,0,0,1,0,0,0,1 @ F,0,0,1,0,0,0,1 @ F,0,0,1,0,0,0,1 @ F,0,0,1,0,0,0,1"
       unit="px"
       method="auto"
       mode="F"
       radius="1"
       chamfer_steps="1"
       flexible="false"
       use_knot_distance="true"
       apply_no_radius="true"
       apply_with_radius="true"
       only_selected="false"
       hide_knots="false" />
    <inkscape:path-effect
       effect="fillet_chamfer"
       id="path-effect41031"
       is_visible="true"
       lpeversion="1"
       nodesatellites_param="F,0,0,1,0,3,0,1 @ F,0,0,1,0,3,0,1 @ F,0,0,1,0,3,0,1 @ F,0,0,1,0,3,0,1 @ F,0,0,1,0,3,0,1"
       unit="px"
       method="auto"
       mode="F"
       radius="3"
       chamfer_steps="1"
       flexible="false"
       use_knot_distance="true"
       apply_no_radius="true"
       apply_with_radius="true"
       only_selected="false"
       hide_knots="false" />
    <inkscape:path-effect
       effect="fillet_chamfer"
       id="path-effect41209-0"
       is_visible="true"
       lpeversion="1"
       nodesatellites_param="F,0,0,1,0,3,0,1 @ F,0,0,1,0,3,0,1 @ F,0,0,1,0,3,0,1 @ F,0,0,1,0,3,0,1"
       unit="px"
       method="auto"
       mode="F"
       radius="3"
       chamfer_steps="1"
       flexible="false"
       use_knot_distance="true"
       apply_no_radius="true"
       apply_with_radius="true"
       only_selected="false"
       hide_knots="false" />
    <linearGradient
       inkscape:collect="always"
       xlink:href="#linearGradient45685"
       id="linearGradient45687"
       x1="2.0546875"
       y1="30"
       x2="55"
       y2="30"
       gradientUnits="userSpaceOnUse" />
  </defs>
  <g
     inkscape:label="Layer 1"
     inkscape:groupmode="layer"
     id="layer1">
    <path
       id="rect41207"
       style="color:#000000;fill:url(#linearGradient45687);stroke-linecap:round;fill-opacity:1"
       d="m 7,21.054687 c -2.7197884,0 -4.9453125,2.225525 -4.9453125,4.945313 v 17 c 0,2.719788 2.2255241,4.945313 4.9453125,4.945312 h 38 c 2.719788,0 4.945312,-2.225524 4.945312,-4.945312 V 26 c 0,-2.719788 -2.225524,-4.945313 -4.945312,-4.945313 z m 0,1.890625 h 38 c 1.698485,0 3.054687,1.356203 3.054687,3.054688 v 17 c 0,1.698485 -1.356202,3.054687 -3.054687,3.054687 H 7 C 5.3015148,46.054687 3.9453125,44.698485 3.9453125,43 V 26 C 3.9453125,24.301515 5.3015148,22.945312 7,22.945312 Z M 13.04117,27 c -1.138066,0 -2.077698,0.185913 -2.820789,0.557403 -0.743091,0.371491 -1.2989757,0.887075 -1.6671738,1.547503 -0.3681981,0.653548 -0.5532071,1.409362 -0.5532071,2.269293 0,0.859932 0.1620116,1.565887 0.4833482,2.116243 0.3280311,0.543476 0.800164,0.990695 1.4160591,1.341547 0.6158956,0.343973 1.3576466,0.647432 2.2279326,0.908851 0.629285,0.185745 1.172298,0.374226 1.627524,0.566851 0.455228,0.185746 0.803105,0.404897 1.044108,0.659436 0.247697,0.24766 0.371952,0.565171 0.371952,0.95042 0,0.37837 -0.09388,0.686965 -0.281324,0.927747 -0.187447,0.233901 -0.451573,0.41022 -0.792993,0.52717 -0.34142,0.116951 -0.744562,0.175724 -1.206482,0.175724 -0.461922,0 -0.946927,-0.05175 -1.45571,-0.154939 -0.502088,-0.103192 -1.007344,-0.24884 -1.5161268,-0.434586 -0.5020884,-0.192624 -0.984347,-0.42137 -1.4462684,-0.689669 l -0.239786,2.981637 c 0.3414201,0.171986 0.7831758,0.336821 1.3254314,0.495049 0.5489498,0.158228 1.1333238,0.285368 1.7559128,0.38168 0.629285,0.103191 1.243178,0.154939 1.838989,0.154939 1.278653,0 2.322287,-0.185912 3.132323,-0.557403 0.810037,-0.371491 1.406424,-0.891533 1.788011,-1.55884 0.381587,-0.674186 0.572088,-1.46067 0.572088,-2.361879 0,-0.811775 -0.139872,-1.48706 -0.421042,-2.023657 -0.274474,-0.536597 -0.743862,-0.99341 -1.406618,-1.37178 -0.662757,-0.385249 -1.56652,-0.752617 -2.711282,-1.103469 -0.6092,-0.185745 -1.107077,-0.364633 -1.495358,-0.536619 -0.381587,-0.178865 -0.667853,-0.383287 -0.8553,-0.61031 -0.180752,-0.233901 -0.269995,-0.518851 -0.269995,-0.855944 0,-0.343973 0.09662,-0.628923 0.290764,-0.855945 0.194141,-0.227022 0.455522,-0.396315 0.783552,-0.506386 0.334726,-0.110072 0.705602,-0.164387 1.113967,-0.164387 0.361504,0 0.764645,0.04729 1.206482,0.143602 0.441839,0.09631 0.89372,0.237503 1.355642,0.423248 0.461921,0.185745 0.906422,0.41638 1.334871,0.691559 l 0.251114,-2.992973 c -0.26778,-0.137589 -0.582535,-0.267297 -0.944039,-0.391127 -0.361504,-0.123831 -0.757265,-0.234351 -1.185713,-0.330663 -0.421755,-0.09632 -0.856131,-0.171707 -1.304663,-0.226741 -0.448532,-0.06191 -0.897668,-0.09258 -1.346201,-0.09258 z m 25.355012,0 c -1.138067,0 -2.077699,0.185913 -2.820789,0.557403 -0.743091,0.371491 -1.298976,0.887075 -1.667174,1.547503 -0.368198,0.653548 -0.551319,1.409362 -0.551319,2.269293 0,0.859932 0.160123,1.565887 0.48146,2.116243 0.328031,0.543476 0.800164,0.990695 1.416059,1.341547 0.615896,0.343973 1.359534,0.647432 2.229822,0.908851 0.629283,0.185745 1.170408,0.374226 1.625635,0.566851 0.455227,0.185746 0.803106,0.404897 1.044108,0.659436 0.247697,0.24766 0.371952,0.565171 0.371952,0.95042 0,0.37837 -0.09388,0.686965 -0.281324,0.927747 -0.187446,0.233901 -0.451573,0.41022 -0.792994,0.52717 -0.341419,0.116951 -0.742672,0.175724 -1.204593,0.175724 -0.461922,0 -0.946927,-0.05175 -1.45571,-0.154939 -0.502088,-0.103192 -1.009232,-0.24884 -1.518015,-0.434586 -0.502088,-0.192624 -0.982459,-0.42137 -1.44438,-0.689669 l -0.241674,2.981637 c 0.34142,0.171986 0.783176,0.336821 1.325431,0.495049 0.54895,0.158228 1.135212,0.285368 1.757802,0.38168 0.629283,0.103191 1.241289,0.154939 1.8371,0.154939 1.278652,0 2.322287,-0.185912 3.132323,-0.557403 0.810035,-0.371491 1.406424,-0.891533 1.788011,-1.55884 C 43.8095,39.49187 44,38.705386 44,37.804177 c 0,-0.811775 -0.139872,-1.48706 -0.42104,-2.023657 -0.274477,-0.536597 -0.743863,-0.99341 -1.40662,-1.37178 -0.662756,-0.385249 -1.566519,-0.752617 -2.711281,-1.103469 -0.609201,-0.185745 -1.107077,-0.364633 -1.495358,-0.536619 -0.381587,-0.178865 -0.665966,-0.383287 -0.853412,-0.61031 -0.180752,-0.233901 -0.271883,-0.518851 -0.271883,-0.855944 0,-0.343973 0.09662,-0.628923 0.290763,-0.855945 0.194141,-0.227022 0.455522,-0.396315 0.783553,-0.506386 0.334726,-0.110072 0.70749,-0.164387 1.115855,-0.164387 0.361503,0 0.762756,0.04729 1.204594,0.143602 0.441839,0.09631 0.89372,0.237503 1.355641,0.423248 0.461921,0.185745 0.906423,0.41638 1.334872,0.691559 l 0.251114,-2.992973 c -0.26778,-0.137589 -0.582536,-0.267297 -0.944039,-0.391127 -0.361504,-0.123831 -0.755376,-0.234351 -1.183826,-0.330663 -0.421754,-0.09632 -0.858018,-0.171707 -1.30655,-0.226741 -0.448533,-0.06191 -0.897669,-0.09258 -1.346201,-0.09258 z m -17.742277,0.298542 v 2.35243 2.569724 4.993957 2.497922 2.301414 h 1.325432 1.686053 2.018357 c 1.225096,0 2.240242,-0.09647 3.043583,-0.289093 0.803342,-0.199504 1.435599,-0.481887 1.89752,-0.846498 0.468616,-0.36461 0.796243,-0.797777 0.983689,-1.299978 0.194141,-0.509079 0.290764,-1.073844 0.290764,-1.692994 0,-0.722342 -0.122366,-1.320345 -0.370064,-1.795028 -0.247696,-0.474682 -0.597462,-0.849076 -1.045995,-1.124254 -0.441838,-0.275178 -0.947094,-0.477711 -1.516128,-0.60842 v -0.258861 c 0.495394,-0.13071 0.941784,-0.342837 1.33676,-0.638653 0.394976,-0.302696 0.705098,-0.686005 0.932711,-1.146928 0.227614,-0.460924 0.341743,-1.004611 0.341743,-1.630641 0,-0.509079 -0.0865,-0.968459 -0.260556,-1.381227 -0.167362,-0.412766 -0.448995,-0.767973 -0.843971,-1.06379 -0.388281,-0.302695 -0.913789,-0.533331 -1.576546,-0.691558 -0.656062,-0.165107 -1.473327,-0.247524 -2.450726,-0.247524 h -3.062464 z m 3.243719,2.528154 h 2.288352 c 0.669451,0 1.169216,0.148217 1.497247,0.444033 0.328031,0.288937 0.490901,0.719536 0.490901,1.290531 0,0.364611 -0.07912,0.68469 -0.239787,0.959867 -0.153974,0.275178 -0.392357,0.49433 -0.713694,0.659437 -0.321336,0.158227 -0.727223,0.238077 -1.215923,0.238077 h -2.107096 v -0.444033 -1.692995 z m 0,5.974608 h 2.248703 c 0.756479,0 1.335361,0.148217 1.737032,0.444034 0.401671,0.288937 0.602297,0.740612 0.602297,1.352883 0,0.405888 -0.0865,0.745154 -0.260555,1.020332 -0.174057,0.275178 -0.448309,0.484736 -0.823202,0.629204 -0.368198,0.144469 -0.840332,0.217294 -1.41606,0.217294 h -2.088215 v -1.383117 -1.59852 z M 23,5 a 3,3 0 0 0 -3,3 v 14 h 26 a 3,3 0 0 1 3,3 v 19 a 3,3 0 0 1 -3,3 H 20 v 5 a 3,3 0 0 0 3,3 h 29 a 3,3 0 0 0 3,-3 V 23 A 7.2426407,7.2426407 0 0 0 52.878906,17.878906 L 42.121094,7.1210938 A 7.2426407,7.2426407 0 0 0 37,5 Z" />
  </g>
</svg>
