<?xml version="1.0" encoding="UTF-8" standalone="no"?>
<!-- Created with Inkscape (http://www.inkscape.org/) -->

<svg
   width="60.0px"
   height="60.0px"
   viewBox="0 0 60.0 60.0"
   version="1.1"
   id="SVGRoot"
   sodipodi:docname="infoIcon.svg"
   inkscape:version="1.2 (dc2aedaf03, 2022-05-15)"
   xmlns:inkscape="http://www.inkscape.org/namespaces/inkscape"
   xmlns:sodipodi="http://sodipodi.sourceforge.net/DTD/sodipodi-0.dtd"
   xmlns="http://www.w3.org/2000/svg"
   xmlns:svg="http://www.w3.org/2000/svg">
  <sodipodi:namedview
     id="namedview5011"
     pagecolor="#505050"
     bordercolor="#eeeeee"
     borderopacity="1"
     inkscape:showpageshadow="0"
     inkscape:pageopacity="0"
     inkscape:pagecheckerboard="0"
     inkscape:deskcolor="#505050"
     inkscape:document-units="px"
     showgrid="true"
     inkscape:zoom="11.313708"
     inkscape:cx="8.6178639"
     inkscape:cy="27.665553"
     inkscape:window-width="1920"
     inkscape:window-height="1009"
     inkscape:window-x="-8"
     inkscape:window-y="115"
     inkscape:window-maximized="1"
     inkscape:current-layer="layer1">
    <inkscape:grid
       type="xygrid"
       id="grid5134"
       spacingx="1"
       spacingy="1" />
  </sodipodi:namedview>
  <defs
     id="defs5006">
    <inkscape:path-effect
       effect="fillet_chamfer"
       id="path-effect13817"
       is_visible="false"
       lpeversion="1"
       nodesatellites_param="F,1,0,1,0,0.5,0,1 @ F,1,0,1,0,0.5,0,1 @ F,1,0,1,0,0.5,0,1 @ F,1,0,1,0,0.5,0,1"
       unit="px"
       method="auto"
       mode="F"
       radius="50"
       chamfer_steps="1"
       flexible="true"
       use_knot_distance="true"
       apply_no_radius="true"
       apply_with_radius="true"
       only_selected="false"
       hide_knots="false" />
    <inkscape:path-effect
       effect="fillet_chamfer"
       id="path-effect13813"
       is_visible="true"
       lpeversion="1"
       nodesatellites_param="F,0,0,1,0,1,0,1 @ F,0,0,1,0,1,0,1 @ F,0,0,1,0,1,0,1 @ F,0,0,1,0,1,0,1 @ F,0,0,1,0,1,0,1 @ F,0,0,1,0,1,0,1 @ F,0,0,1,0,1,0,1"
       unit="px"
       method="auto"
       mode="F"
       radius="1"
       chamfer_steps="1"
       flexible="false"
       use_knot_distance="true"
       apply_no_radius="true"
       apply_with_radius="true"
       only_selected="false"
       hide_knots="false" />
    <inkscape:path-effect
       effect="fillet_chamfer"
       id="path-effect5927"
       is_visible="true"
       lpeversion="1"
       nodesatellites_param="F,1,0,1,0,0.5,0,1 @ F,1,0,1,0,0.5,0,1 @ F,1,0,1,0,0.5,0,1 @ F,1,0,1,0,0.5,0,1"
       unit="px"
       method="auto"
       mode="F"
       radius="50"
       chamfer_steps="1"
       flexible="true"
       use_knot_distance="true"
       apply_no_radius="true"
       apply_with_radius="true"
       only_selected="false"
       hide_knots="false" />
  </defs>
  <g
     inkscape:label="Layer 1"
     inkscape:groupmode="layer"
     id="layer1">
    <path
       id="path5925"
       style="display:inline;fill:#949494;fill-opacity:1;stroke:none;stroke-width:3;stroke-linecap:butt;stroke-linejoin:miter;stroke-dasharray:none;stroke-opacity:1"
       d="M 30.255859,5.7441406 C 16.777102,5.8847617 5.8847617,16.777102 5.7441406,30.255859 c -0.139903,13.31234 10.6876604,24.139903 24.0000004,24 C 43.222898,54.115239 54.115239,43.222898 54.255859,29.744141 54.395763,16.4318 43.5682,5.604237 30.255859,5.7441406 Z M 29.996094,15 C 32.204691,14.9977 33.996955,16.785545 34,18.994141 L 30,19 h 4 c 0,2.208599 -1.789449,3.999239 -3.998047,4 C 27.793355,23.000761 26.001523,21.210551 26,19.001953 25.9985,16.793355 27.787496,15.002284 29.996094,15 Z M 30,27 c 1.380711,0 2.5,1.119289 2.5,2.5 V 43 c 0,1.380711 -1.119289,2.5 -2.5,2.5 -1.380711,0 -2.5,-1.119289 -2.5,-2.5 V 29.5 C 27.5,28.119289 28.619289,27 30,27 Z"
       sodipodi:nodetypes="cccccccccsccsssssss" />
    <path
       d="M 29.996094,15 C 32.204691,14.9977 33.996955,16.785545 34,18.994141 L 30,19 h 4 c 0,2.208599 -1.789449,3.999239 -3.998047,4 C 27.793355,23.000761 26.001523,21.210551 26,19.001953 25.9985,16.793355 27.787496,15.002284 29.996094,15 Z M 30,27 c 1.380711,0 2.5,1.119289 2.5,2.5 V 43 c 0,1.380711 -1.119289,2.5 -2.5,2.5 -1.380711,0 -2.5,-1.119289 -2.5,-2.5 V 29.5 C 27.5,28.119289 28.619289,27 30,27 Z"
       style="display:inline;fill:#949494;fill-opacity:0.29803923;stroke:none;stroke-width:3;stroke-linecap:butt;stroke-linejoin:miter;stroke-dasharray:none;stroke-opacity:1"
       id="path15582" />
  </g>
</svg>
