<?xml version="1.0" encoding="UTF-8" standalone="no"?>
<!-- Created with Inkscape (http://www.inkscape.org/) -->

<svg
   width="60.0px"
   height="60.0px"
   viewBox="0 0 60.0 60.0"
   version="1.1"
   id="SVGRoot"
   sodipodi:docname="logo.svg"
   inkscape:version="1.2 (dc2aedaf03, 2022-05-15)"
   xmlns:inkscape="http://www.inkscape.org/namespaces/inkscape"
   xmlns:sodipodi="http://sodipodi.sourceforge.net/DTD/sodipodi-0.dtd"
   xmlns="http://www.w3.org/2000/svg"
   xmlns:svg="http://www.w3.org/2000/svg">
  <sodipodi:namedview
     id="namedview6141"
     pagecolor="#505050"
     bordercolor="#eeeeee"
     borderopacity="1"
     inkscape:showpageshadow="0"
     inkscape:pageopacity="0"
     inkscape:pagecheckerboard="0"
     inkscape:deskcolor="#505050"
     inkscape:document-units="px"
     showgrid="true"
     inkscape:zoom="5.8938833"
     inkscape:cx="40.465681"
     inkscape:cy="24.092774"
     inkscape:window-width="1920"
     inkscape:window-height="1009"
     inkscape:window-x="-8"
     inkscape:window-y="115"
     inkscape:window-maximized="1"
     inkscape:current-layer="layer1">
    <inkscape:grid
       type="xygrid"
       id="grid6627" />
  </sodipodi:namedview>
  <defs
     id="defs6136">
    <inkscape:path-effect
       effect="fillet_chamfer"
       id="path-effect7524"
       is_visible="true"
       lpeversion="1"
       nodesatellites_param="F,0,0,1,0,1,0,1 @ F,0,0,1,0,1,0,1 @ F,0,0,1,0,1,0,1 @ F,0,0,1,0,1,0,1 @ F,0,0,1,0,1,0,1 @ F,0,0,1,0,1,0,1 @ F,0,0,1,0,1,0,1 @ F,0,0,1,0,1,0,1 @ F,0,0,1,0,1,0,1 @ F,0,0,1,0,1,0,1 @ F,0,0,1,0,1,0,1 @ F,0,0,1,0,1,0,1"
       unit="px"
       method="auto"
       mode="F"
       radius="1"
       chamfer_steps="1"
       flexible="false"
       use_knot_distance="true"
       apply_no_radius="true"
       apply_with_radius="true"
       only_selected="false"
       hide_knots="false" />
    <inkscape:path-effect
       effect="fillet_chamfer"
       id="path-effect7518"
       is_visible="true"
       lpeversion="1"
       nodesatellites_param="F,0,0,1,0,0,0,1 @ F,0,0,1,0,10,0,1 @ F,0,0,1,0,10,0,1 @ F,0,0,1,0,10,0,1"
       unit="px"
       method="auto"
       mode="F"
       radius="10"
       chamfer_steps="1"
       flexible="false"
       use_knot_distance="true"
       apply_no_radius="true"
       apply_with_radius="true"
       only_selected="false"
       hide_knots="false" />
  </defs>
  <g
     inkscape:label="Layer 1"
     inkscape:groupmode="layer"
     id="layer1">
    <path
       style="color:#000000;fill:#cccccc;fill-opacity:1;-inkscape-stroke:none"
       d="M 14.002222,3.4198131 C 8.54391,4.0556357 4.9692358,9.8400765 6.841623,15.006518 c 0.1880729,0.518946 0.5949296,1.318646 0.8419189,1.812624 L 22.316458,46.084975 a 1.0003494,1.0003494 18.444958 0 0 1.341797,0.447526 l 2.68349,-1.340573 a 0.99967581,0.99967581 108.44568 0 0 0.447392,-1.341339 L 12.156175,14.582825 C 11.909198,14.088841 11.492353,13.286959 11.373334,12.749077 10.946506,10.820118 12.093757,8.9631089 14.009775,8.4821038 14.544076,8.3479709 15.447715,8.3622147 16,8.3622147 h 28 c 0.552285,0 1.455935,-0.014244 1.990246,0.1198944 1.916012,0.4810151 3.063255,2.3380299 2.636415,4.2669889 -0.119019,0.53787 -0.535862,1.339742 -0.782842,1.833725 l -19.63295,39.267768 a 0.99966969,0.99966969 71.554497 0 0 0.447386,1.341337 l 2.68349,1.340573 a 1.0003495,1.0003495 161.55504 0 0 1.341797,-0.447526 L 52.316458,16.819142 c 0.24699,-0.493978 0.653846,-1.293678 0.841919,-1.812625 C 55.030764,9.8400759 51.456089,4.0556353 45.997778,3.4198131 45.44951,3.355947 44.552285,3.3622147 44,3.3622147 H 16 c -0.552285,0 -1.44951,-0.00627 -1.997778,0.057598 z"
       id="path6634"
       inkscape:path-effect="#path-effect7524"
       inkscape:original-d="m 15,3.3622147 c -6.3482961,0 -10.6027161,6.8844113 -7.7636717,12.5625003 L 22.763672,46.979402 27.236328,44.745027 11.708984,13.688387 C 10.438718,11.147854 12.159598,8.3622147 15,8.3622147 h 30 c 2.840402,0 4.561282,2.7856393 3.291016,5.3261723 l -20.527344,41.05664 4.472656,2.234375 20.527344,-41.054687 C 55.602716,10.246626 51.348296,3.3622147 45,3.3622147 Z" />
  </g>
</svg>
