<?xml version="1.0" encoding="UTF-8" standalone="no"?>
<svg
   width="60"
   height="60"
   viewBox="0 0 24 24"
   fill="none"
   stroke="currentColor"
   stroke-width="2"
   stroke-linecap="round"
   stroke-linejoin="round"
   class="feather feather-search"
   version="1.1"
   id="svg8124"
   sodipodi:docname="search.svg"
   inkscape:version="1.2 (dc2aedaf03, 2022-05-15)"
   xmlns:inkscape="http://www.inkscape.org/namespaces/inkscape"
   xmlns:sodipodi="http://sodipodi.sourceforge.net/DTD/sodipodi-0.dtd"
   xmlns="http://www.w3.org/2000/svg"
   xmlns:svg="http://www.w3.org/2000/svg">
  <defs
     id="defs8128" />
  <sodipodi:namedview
     id="namedview8126"
     pagecolor="#505050"
     bordercolor="#eeeeee"
     borderopacity="1"
     inkscape:showpageshadow="0"
     inkscape:pageopacity="0"
     inkscape:pagecheckerboard="0"
     inkscape:deskcolor="#505050"
     showgrid="true"
     inkscape:zoom="13.783333"
     inkscape:cx="23.434099"
     inkscape:cy="28.657799"
     inkscape:window-width="1920"
     inkscape:window-height="1009"
     inkscape:window-x="-8"
     inkscape:window-y="115"
     inkscape:window-maximized="1"
     inkscape:current-layer="svg8124">
    <inkscape:grid
       type="xygrid"
       id="grid8765" />
  </sodipodi:namedview>
  <path
     style="fill:#949494;stroke:none;stroke-width:0.0398546;stroke-linecap:round;stroke-linejoin:round;stroke-opacity:0.50251257;fill-opacity:0.29648241"
     id="path8767"
     sodipodi:type="arc"
     sodipodi:cx="11.010113"
     sodipodi:cy="11.023019"
     sodipodi:rx="7.3901854"
     sodipodi:ry="7.3570538"
     sodipodi:start="0"
     sodipodi:end="6.2818065"
     sodipodi:arc-type="slice"
     d="m 18.400298,11.023019 a 7.3901854,7.3570538 0 0 1 -7.387638,7.357053 7.3901854,7.3570538 0 0 1 -7.3927308,-7.351981 7.3901854,7.3570538 0 0 1 7.3825418,-7.362122 7.3901854,7.3570538 0 0 1 7.39782,7.346906 l -7.390178,0.01014 z" />
  <path
     id="line8122"
     d="M 21,21 16.65,16.65 M 19,11 a 8,8 0 0 1 -8,8 8,8 0 0 1 -8,-8 8,8 0 0 1 8,-8 8,8 0 0 1 8,8 z"
     style="stroke:#949494;stroke-opacity:1" />
</svg>
