<?xml version="1.0" encoding="UTF-8" standalone="no"?>
<!-- Created with Inkscape (http://www.inkscape.org/) -->

<svg
   width="144.27512"
   height="30.157061"
   viewBox="0 0 144.27512 30.157061"
   version="1.1"
   id="SVGRoot"
   sodipodi:docname="Title.svg"
   inkscape:version="1.2 (dc2aedaf03, 2022-05-15)"
   xmlns:inkscape="http://www.inkscape.org/namespaces/inkscape"
   xmlns:sodipodi="http://sodipodi.sourceforge.net/DTD/sodipodi-0.dtd"
   xmlns="http://www.w3.org/2000/svg"
   xmlns:svg="http://www.w3.org/2000/svg">
  <sodipodi:namedview
     id="namedview137"
     pagecolor="#505050"
     bordercolor="#eeeeee"
     borderopacity="1"
     inkscape:showpageshadow="0"
     inkscape:pageopacity="0"
     inkscape:pagecheckerboard="0"
     inkscape:deskcolor="#505050"
     inkscape:document-units="px"
     showgrid="true"
     inkscape:zoom="5.6568543"
     inkscape:cx="72.831998"
     inkscape:cy="48.967145"
     inkscape:window-width="1920"
     inkscape:window-height="1009"
     inkscape:window-x="-8"
     inkscape:window-y="115"
     inkscape:window-maximized="1"
     inkscape:current-layer="layer1">
    <inkscape:grid
       type="xygrid"
       id="grid260"
       originx="42.137561"
       originy="-14.92147" />
  </sodipodi:namedview>
  <defs
     id="defs132">
    <inkscape:path-effect
       effect="fillet_chamfer"
       id="path-effect484"
       is_visible="true"
       lpeversion="1"
       nodesatellites_param="F,0,0,1,0,0.6,0,1 @ F,0,0,1,0,0.6,0,1 @ F,0,0,1,0,0.6,0,1 @ F,0,0,1,0,0.6,0,1 @ F,0,0,1,0,0.6,0,1 @ F,0,0,1,0,0.6,0,1 @ F,0,0,1,0,0.6,0,1 @ F,0,0,1,0,0.6,0,1 @ F,0,0,1,0,0.6,0,1 @ F,0,0,1,0,0.6,0,1 @ F,0,0,1,0,0.6,0,1 @ F,0,0,1,0,0.6,0,1 | F,0,0,1,0,0.6,0,1 @ F,0,0,1,0,0.6,0,1 @ F,0,0,1,0,0.6,0,1 @ F,0,0,1,0,0.6,0,1 @ F,0,0,1,0,0.6,0,1 @ F,0,0,1,0,0.6,0,1 @ F,0,0,1,0,0.6,0,1 @ F,0,0,1,0,0.6,0,1 @ F,0,0,1,0,0.6,0,1 @ F,0,0,1,0,0.6,0,1 @ F,0,0,1,0,0.6,0,1 @ F,0,0,1,0,0.6,0,1 @ F,0,0,1,0,0.6,0,1 @ F,0,0,1,0,0.6,0,1 @ F,0,0,1,0,0.6,0,1 @ F,0,0,1,0,0.6,0,1 @ F,0,0,1,0,0.6,0,1 @ F,0,0,1,0,0.6,0,1 @ F,0,0,1,0,0.6,0,1 | F,0,0,1,0,0.6,0,1 @ F,0,0,1,0,0.6,0,1 @ F,0,0,1,0,0.6,0,1 @ F,0,0,1,0,0.6,0,1 @ F,0,0,1,0,0.6,0,1 @ F,0,0,1,0,0.6,0,1 @ F,0,0,1,0,0.6,0,1 @ F,0,0,1,0,0.6,0,1 @ F,0,0,1,0,0.6,0,1 @ F,0,0,1,0,0.6,0,1 @ F,0,0,1,0,0.6,0,1 @ F,0,0,1,0,0.6,0,1 @ F,0,0,1,0,0.6,0,1 @ F,0,0,1,0,0.6,0,1 @ F,0,0,1,0,0.6,0,1 @ F,0,0,1,0,0.6,0,1 @ F,0,0,1,0,0.6,0,1 @ F,0,0,1,0,0.6,0,1 @ F,0,0,1,0,0.6,0,1 @ F,0,0,1,0,0.6,0,1 @ F,0,0,1,0,0.6,0,1 @ F,0,0,1,0,0.6,0,1 | F,0,0,1,0,0.6,0,1 @ F,0,0,1,0,0.6,0,1 @ F,0,0,1,0,0.6,0,1 @ F,0,0,1,0,0.6,0,1 @ F,0,0,1,0,0.6,0,1 @ F,0,0,1,0,0.6,0,1 @ F,0,0,1,0,0.6,0,1 @ F,0,0,1,0,0.6,0,1 @ F,0,0,1,0,0.6,0,1 @ F,0,0,1,0,0.6,0,1 @ F,0,0,1,0,0.6,0,1 @ F,0,0,1,0,0.6,0,1 @ F,0,0,1,0,0.6,0,1 @ F,0,0,1,0,0.6,0,1 @ F,0,0,1,0,0.6,0,1 @ F,0,0,1,0,0.6,0,1 @ F,0,0,1,0,0.6,0,1 @ F,0,0,1,0,0.6,0,1 @ F,0,0,1,0,0.6,0,1 @ F,0,0,1,0,0.6,0,1 @ F,0,0,1,0,0.6,0,1 @ F,0,0,1,0,0.6,0,1 @ F,0,0,1,0,0.6,0,1 @ F,0,0,1,0,0.6,0,1 @ F,0,0,1,0,0.6,0,1 @ F,0,0,1,0,0.6,0,1 @ F,0,0,1,0,0.6,0,1 @ F,0,0,1,0,0.6,0,1 | F,0,0,1,0,0.6,0,1 @ F,0,0,1,0,0.6,0,1 @ F,0,0,1,0,0.6,0,1 @ F,0,0,1,0,0.6,0,1 @ F,0,0,1,0,0.6,0,1 @ F,0,0,1,0,0.6,0,1 @ F,0,0,1,0,0.6,0,1 @ F,0,0,1,0,0.6,0,1 @ F,0,0,1,0,0.6,0,1 @ F,0,0,1,0,0.6,0,1 @ F,0,0,1,0,0.6,0,1 @ F,0,0,1,0,0.6,0,1 @ F,0,0,1,0,0.6,0,1 @ F,0,0,1,0,0.6,0,1 @ F,0,0,1,0,0.6,0,1 @ F,0,0,1,0,0.6,0,1 @ F,0,0,1,0,0.6,0,1 @ F,0,0,1,0,0.6,0,1 @ F,0,0,1,0,0.6,0,1 @ F,0,0,1,0,0.6,0,1 @ F,0,0,1,0,0.6,0,1 @ F,0,0,1,0,0.6,0,1 @ F,0,0,1,0,0.6,0,1 @ F,0,0,1,0,0.6,0,1 @ F,0,0,1,0,0.6,0,1 @ F,0,0,1,0,0.6,0,1 @ F,0,0,1,0,0.6,0,1 @ F,0,0,1,0,0.6,0,1 | F,0,0,1,0,0.6,0,1 @ F,0,0,1,0,0.6,0,1 @ F,0,0,1,0,0.6,0,1 @ F,0,0,1,0,0.6,0,1 @ F,0,0,1,0,0.6,0,1 @ F,0,0,1,0,0.6,0,1 @ F,0,0,1,0,0.6,0,1 @ F,0,0,1,0,0.6,0,1 @ F,0,0,1,0,0.6,0,1 @ F,0,0,1,0,0.6,0,1 @ F,0,0,1,0,0.6,0,1 @ F,0,0,1,0,0.6,0,1 @ F,0,0,1,0,0.6,0,1 @ F,0,0,1,0,0.6,0,1 | F,0,0,1,0,0.6,0,1 @ F,0,0,1,0,0.6,0,1 @ F,0,0,1,0,0.6,0,1 @ F,0,0,1,0,0.6,0,1 @ F,0,0,1,0,0.6,0,1 @ F,0,0,1,0,0.6,0,1 @ F,0,0,1,0,0.6,0,1 @ F,0,0,1,0,0.6,0,1 @ F,0,0,1,0,0.6,0,1 @ F,0,0,1,0,0.6,0,1 @ F,0,0,1,0,0.6,0,1 @ F,0,0,1,0,0.6,0,1 @ F,0,0,1,0,0.6,0,1 @ F,0,0,1,0,0.6,0,1 @ F,0,0,1,0,0.6,0,1 @ F,0,0,1,0,0.6,0,1 @ F,0,0,1,0,0.6,0,1 @ F,0,0,1,0,0.6,0,1 @ F,0,0,1,0,0.6,0,1 | F,0,0,1,0,0.6,0,1 @ F,0,0,1,0,0.6,0,1 @ F,0,0,1,0,0.6,0,1 @ F,0,0,1,0,0.6,0,1 @ F,0,0,1,0,0.6,0,1 @ F,0,0,1,0,0.6,0,1 @ F,0,0,1,0,0.6,0,1 @ F,0,0,1,0,0.6,0,1 @ F,0,0,1,0,0.6,0,1 @ F,0,0,1,0,0.6,0,1 @ F,0,0,1,0,0.6,0,1 @ F,0,0,1,0,0.6,0,1 @ F,0,0,1,0,0.6,0,1 @ F,0,0,1,0,0.6,0,1 @ F,0,0,1,0,0.6,0,1 @ F,0,0,1,0,0.6,0,1 @ F,0,0,1,0,0.6,0,1 @ F,0,0,1,0,0.6,0,1 @ F,0,0,1,0,0.6,0,1 @ F,0,0,1,0,0.6,0,1 @ F,0,0,1,0,0.6,0,1 @ F,0,0,1,0,0.6,0,1 @ F,0,0,1,0,0.6,0,1 @ F,0,0,1,0,0.6,0,1 @ F,0,0,1,0,0.6,0,1 @ F,0,0,1,0,0.6,0,1 @ F,0,0,1,0,0.6,0,1 @ F,0,0,1,0,0.6,0,1 @ F,0,0,1,0,0.6,0,1 @ F,0,0,1,0,0.6,0,1 @ F,0,0,1,0,0.6,0,1 | F,0,0,1,0,0.6,0,1 @ F,0,0,1,0,0.6,0,1 @ F,0,0,1,0,0.6,0,1 @ F,0,0,1,0,0.6,0,1 @ F,0,0,1,0,0.6,0,1 @ F,0,0,1,0,0.6,0,1 | F,0,0,1,0,0.6,0,1 @ F,0,0,1,0,0.6,0,1 @ F,0,0,1,0,0.6,0,1 @ F,0,0,1,0,0.6,0,1 @ F,0,0,1,0,0.6,0,1 @ F,0,0,1,0,0.6,0,1 @ F,0,0,1,0,0.6,0,1 @ F,0,0,1,0,0.6,0,1 @ F,0,0,1,0,0.6,0,1 @ F,0,0,1,0,0.6,0,1 @ F,0,0,1,0,0.6,0,1"
       unit="px"
       method="auto"
       mode="F"
       radius="0.6"
       chamfer_steps="1"
       flexible="false"
       use_knot_distance="true"
       apply_no_radius="true"
       apply_with_radius="true"
       only_selected="false"
       hide_knots="false" />
    <inkscape:path-effect
       effect="fillet_chamfer"
       id="path-effect1262"
       is_visible="true"
       lpeversion="1"
       nodesatellites_param="F,0,0,1,0,0.7,0,1 @ F,0,0,1,0,0.7,0,1 @ F,0,0,1,0,0.7,0,1 @ F,0,0,1,0,0.7,0,1 @ F,0,0,1,0,0.7,0,1 @ F,0,0,1,0,0.7,0,1 @ F,0,0,1,0,0.7,0,1 @ F,0,0,1,0,0.7,0,1 @ F,0,0,1,0,0.7,0,1 @ F,0,0,1,0,0.7,0,1 @ F,0,0,1,0,0.7,0,1 @ F,0,0,1,0,0.7,0,1 | F,0,0,1,0,0.7,0,1 @ F,0,0,1,0,0.7,0,1 @ F,0,0,1,0,0.7,0,1 @ F,0,0,1,0,0.7,0,1 @ F,0,0,1,0,0.7,0,1 @ F,0,0,1,0,0.7,0,1 @ F,0,0,1,0,0.7,0,1 @ F,0,0,1,0,0.7,0,1 @ F,0,0,1,0,0.7,0,1 @ F,0,0,1,0,0.7,0,1 @ F,0,0,1,0,0.7,0,1 @ F,0,0,1,0,0.7,0,1 @ F,0,0,1,0,0.7,0,1 @ F,0,0,1,0,0.7,0,1 @ F,0,0,1,0,0.7,0,1 @ F,0,0,1,0,0.7,0,1 @ F,0,0,1,0,0.7,0,1 @ F,0,0,1,0,0.7,0,1 @ F,0,0,1,0,0.7,0,1 | F,0,0,1,0,0.7,0,1 @ F,0,0,1,0,0.7,0,1 @ F,0,0,1,0,0.7,0,1 @ F,0,0,1,0,0.7,0,1 @ F,0,0,1,0,0.7,0,1 @ F,0,0,1,0,0.7,0,1 @ F,0,0,1,0,0.7,0,1 @ F,0,0,1,0,0.7,0,1 @ F,0,0,1,0,0.7,0,1 @ F,0,0,1,0,0.7,0,1 @ F,0,0,1,0,0.7,0,1 @ F,0,0,1,0,0.7,0,1 @ F,0,0,1,0,0.7,0,1 @ F,0,0,1,0,0.7,0,1 @ F,0,0,1,0,0.7,0,1 @ F,0,0,1,0,0.7,0,1 @ F,0,0,1,0,0.7,0,1 @ F,0,0,1,0,0.7,0,1 @ F,0,0,1,0,0.7,0,1 @ F,0,0,1,0,0.7,0,1 @ F,0,0,1,0,0.7,0,1 @ F,0,0,1,0,0.7,0,1 @ F,0,0,1,0,0.7,0,1 | F,0,0,1,0,0.7,0,1 @ F,0,0,1,0,0.7,0,1 @ F,0,0,1,0,0.7,0,1 @ F,0,0,1,0,0.7,0,1 @ F,0,0,1,0,0.7,0,1 @ F,0,0,1,0,0.7,0,1 @ F,0,0,1,0,0.7,0,1 @ F,0,0,1,0,0.7,0,1 @ F,0,0,1,0,0.7,0,1 @ F,0,0,1,0,0.7,0,1 @ F,0,0,1,0,0.7,0,1 @ F,0,0,1,0,0.7,0,1 @ F,0,0,1,0,0.7,0,1 @ F,0,0,1,0,0.7,0,1 @ F,0,0,1,0,0.7,0,1 @ F,0,0,1,0,0.7,0,1 @ F,0,0,1,0,0.7,0,1 @ F,0,0,1,0,0.7,0,1 @ F,0,0,1,0,0.7,0,1 @ F,0,0,1,0,0.7,0,1 @ F,0,0,1,0,0.7,0,1 @ F,0,0,1,0,0.7,0,1 @ F,0,0,1,0,0.7,0,1 @ F,0,0,1,0,0.7,0,1 @ F,0,0,1,0,0.7,0,1 @ F,0,0,1,0,0.7,0,1 @ F,0,0,1,0,0.7,0,1 @ F,0,0,1,0,0.7,0,1 | F,0,0,1,0,0.7,0,1 @ F,0,0,1,0,0.7,0,1 @ F,0,0,1,0,0.7,0,1 @ F,0,0,1,0,0.7,0,1 @ F,0,0,1,0,0.7,0,1 @ F,0,0,1,0,0.7,0,1 @ F,0,0,1,0,0.7,0,1 @ F,0,0,1,0,0.7,0,1 @ F,0,0,1,0,0.7,0,1 @ F,0,0,1,0,0.7,0,1 @ F,0,0,1,0,0.7,0,1 @ F,0,0,1,0,0.7,0,1 @ F,0,0,1,0,0.7,0,1 @ F,0,0,1,0,0.7,0,1 @ F,0,0,1,0,0.7,0,1 @ F,0,0,1,0,0.7,0,1 @ F,0,0,1,0,0.7,0,1 @ F,0,0,1,0,0.7,0,1 @ F,0,0,1,0,0.7,0,1 @ F,0,0,1,0,0.7,0,1 @ F,0,0,1,0,0.7,0,1 @ F,0,0,1,0,0.7,0,1 @ F,0,0,1,0,0.7,0,1 @ F,0,0,1,0,0.7,0,1 @ F,0,0,1,0,0.7,0,1 @ F,0,0,1,0,0.7,0,1 @ F,0,0,1,0,0.7,0,1 @ F,0,0,1,0,0.7,0,1 @ F,0,0,1,0,0.7,0,1 | F,0,0,1,0,0.7,0,1 @ F,0,0,1,0,0.7,0,1 @ F,0,0,1,0,0.7,0,1 @ F,0,0,1,0,0.7,0,1 @ F,0,0,1,0,0.7,0,1 @ F,0,0,1,0,0.7,0,1 @ F,0,0,1,0,0.7,0,1 @ F,0,0,1,0,0.7,0,1 @ F,0,0,1,0,0.7,0,1 @ F,0,0,1,0,0.7,0,1 @ F,0,0,1,0,0.7,0,1 @ F,0,0,1,0,0.7,0,1 @ F,0,0,1,0,0.7,0,1 @ F,0,0,1,0,0.7,0,1 | F,0,0,1,0,0.7,0,1 @ F,0,0,1,0,0.7,0,1 @ F,0,0,1,0,0.7,0,1 @ F,0,0,1,0,0.7,0,1 @ F,0,0,1,0,0.7,0,1 @ F,0,0,1,0,0.7,0,1 @ F,0,0,1,0,0.7,0,1 @ F,0,0,1,0,0.7,0,1 @ F,0,0,1,0,0.7,0,1 @ F,0,0,1,0,0.7,0,1 @ F,0,0,1,0,0.7,0,1 @ F,0,0,1,0,0.7,0,1 @ F,0,0,1,0,0.7,0,1 @ F,0,0,1,0,0.7,0,1 @ F,0,0,1,0,0.7,0,1 @ F,0,0,1,0,0.7,0,1 @ F,0,0,1,0,0.7,0,1 @ F,0,0,1,0,0.7,0,1 @ F,0,0,1,0,0.7,0,1 @ F,0,0,1,0,0.7,0,1 | F,0,0,1,0,0.7,0,1 @ F,0,0,1,0,0.7,0,1 @ F,0,0,1,0,0.7,0,1 @ F,0,0,1,0,0.7,0,1 @ F,0,0,1,0,0.7,0,1 @ F,0,0,1,0,0.7,0,1 @ F,0,0,1,0,0.7,0,1 @ F,0,0,1,0,0.7,0,1 @ F,0,0,1,0,0.7,0,1 @ F,0,0,1,0,0.7,0,1 @ F,0,0,1,0,0.7,0,1 @ F,0,0,1,0,0.7,0,1 @ F,0,0,1,0,0.7,0,1 @ F,0,0,1,0,0.7,0,1 @ F,0,0,1,0,0.7,0,1 @ F,0,0,1,0,0.7,0,1 @ F,0,0,1,0,0.7,0,1 @ F,0,0,1,0,0.7,0,1 @ F,0,0,1,0,0.7,0,1 @ F,0,0,1,0,0.7,0,1 @ F,0,0,1,0,0.7,0,1 @ F,0,0,1,0,0.7,0,1 @ F,0,0,1,0,0.7,0,1 @ F,0,0,1,0,0.7,0,1 @ F,0,0,1,0,0.7,0,1 @ F,0,0,1,0,0.7,0,1 @ F,0,0,1,0,0.7,0,1 @ F,0,0,1,0,0.7,0,1 @ F,0,0,1,0,0.7,0,1 @ F,0,0,1,0,0.7,0,1 @ F,0,0,1,0,0.7,0,1 @ F,0,0,1,0,0.7,0,1 @ F,0,0,1,0,0.7,0,1 @ F,0,0,1,0,0.7,0,1 | F,0,0,1,0,0.7,0,1 @ F,0,0,1,0,0.7,0,1 @ F,0,0,1,0,0.7,0,1 @ F,0,0,1,0,0.7,0,1 @ F,0,0,1,0,0.7,0,1 @ F,0,0,1,0,0.7,0,1 | F,0,0,1,0,0.7,0,1 @ F,0,0,1,0,0.7,0,1 @ F,0,0,1,0,0.7,0,1 @ F,0,0,1,0,0.7,0,1 @ F,0,0,1,0,0.7,0,1 @ F,0,0,1,0,0.7,0,1 @ F,0,0,1,0,0.7,0,1 @ F,0,0,1,0,0.7,0,1 @ F,0,0,1,0,0.7,0,1 @ F,0,0,1,0,0.7,0,1 @ F,0,0,1,0,0.7,0,1 @ F,0,0,1,0,0.7,0,1"
       unit="px"
       method="auto"
       mode="F"
       radius="0.7"
       chamfer_steps="1"
       flexible="false"
       use_knot_distance="true"
       apply_no_radius="true"
       apply_with_radius="true"
       only_selected="false"
       hide_knots="false" />
    <inkscape:path-effect
       effect="fillet_chamfer"
       id="path-effect1205"
       is_visible="false"
       lpeversion="1"
       nodesatellites_param="F,0,0,1,0,1,0,1 @ F,0,0,1,0,1,0,1 @ F,0,0,1,0,1,0,1 @ F,0,0,1,0,1,0,1 @ F,0,0,1,0,1,0,1 @ F,0,0,1,0,1,0,1 @ F,0,0,1,0,1,0,1 @ F,0,0,1,0,1,0,1 @ F,0,0,1,0,1,0,1 @ F,0,0,1,0,1,0,1 @ F,0,0,1,0,1,0,1 @ F,0,0,1,0,1,0,1 @ F,0,0,1,0,1,0,1 @ F,0,0,1,0,1,0,1 @ F,0,0,1,0,1,0,1 @ F,0,0,1,0,1,0,1 @ F,0,0,1,0,1,0,1 @ F,0,0,1,0,1,0,1 @ F,0,0,1,0,1,0,1 @ F,0,0,1,0,1,0,1 @ F,0,0,1,0,1,0,1 @ F,0,0,1,0,1,0,1 @ F,0,0,1,0,1,0,1 @ F,0,0,1,0,1,0,1 @ F,0,0,1,0,1,0,1 @ F,0,0,1,0,1,0,1 @ F,0,0,1,0,1,0,1 @ F,0,0,1,0,1,0,1 @ F,0,0,1,0,1,0,1 @ F,0,0,1,0,1,0,1 @ F,0,0,1,0,1,0,1 @ F,0,0,1,0,1,0,1 | F,0,0,1,0,1,0,1 @ F,0,0,1,0,1,0,1 @ F,0,0,1,0,1,0,1 @ F,0,0,1,0,1,0,1 @ F,0,0,1,0,1,0,1 @ F,0,0,1,0,1,0,1 @ F,0,0,1,0,1,0,1 @ F,0,0,1,0,1,0,1 @ F,0,0,1,0,1,0,1 @ F,0,0,1,0,1,0,1 @ F,0,0,1,0,1,0,1 @ F,0,0,1,0,1,0,1 @ F,0,0,1,0,1,0,1 @ F,0,0,1,0,1,0,1 @ F,0,0,1,0,1,0,1 @ F,0,0,1,0,1,0,1 @ F,0,0,1,0,1,0,1 | F,0,0,1,0,1,0,1 @ F,0,0,1,0,1,0,1 @ F,0,0,1,0,1,0,1 @ F,0,0,1,0,1,0,1 @ F,0,0,1,0,1,0,1 @ F,0,0,1,0,1,0,1 @ F,0,0,1,0,1,0,1 @ F,0,0,1,0,1,0,1 | F,0,0,1,0,1,0,1 @ F,0,0,1,0,1,0,1 @ F,0,0,1,0,1,0,1 @ F,0,0,1,0,1,0,1 @ F,0,0,1,0,1,0,1 @ F,0,0,1,0,1,0,1 @ F,0,0,1,0,1,0,1 @ F,0,0,1,0,1,0,1 @ F,0,0,1,0,1,0,1 @ F,0,0,1,0,1,0,1 @ F,0,0,1,0,1,0,1 @ F,0,0,1,0,1,0,1 @ F,0,0,1,0,1,0,1 @ F,0,0,1,0,1,0,1 @ F,0,0,1,0,1,0,1 @ F,0,0,1,0,1,0,1 @ F,0,0,1,0,1,0,1 @ F,0,0,1,0,1,0,1 @ F,0,0,1,0,1,0,1 @ F,0,0,1,0,1,0,1 @ F,0,0,1,0,1,0,1 @ F,0,0,1,0,1,0,1 @ F,0,0,1,0,1,0,1 @ F,0,0,1,0,1,0,1 @ F,0,0,1,0,1,0,1 @ F,0,0,1,0,1,0,1 @ F,0,0,1,0,1,0,1 @ F,0,0,1,0,1,0,1 @ F,0,0,1,0,1,0,1 @ F,0,0,1,0,1,0,1 @ F,0,0,1,0,1,0,1 @ F,0,0,1,0,1,0,1 @ F,0,0,1,0,1,0,1 @ F,0,0,1,0,1,0,1 | F,0,0,1,0,1,0,1 @ F,0,0,1,0,1,0,1 @ F,0,0,1,0,1,0,1 @ F,0,0,1,0,1,0,1 @ F,0,0,1,0,1,0,1 @ F,0,0,1,0,1,0,1 @ F,0,0,1,0,1,0,1 @ F,0,0,1,0,1,0,1 @ F,0,0,1,0,1,0,1 @ F,0,0,1,0,1,0,1 @ F,0,0,1,0,1,0,1 @ F,0,0,1,0,1,0,1 | F,0,0,1,0,1,0,1 @ F,0,0,1,0,1,0,1 @ F,0,0,1,0,1,0,1 @ F,0,0,1,0,1,0,1 @ F,0,0,1,0,1,0,1 @ F,0,0,1,0,1,0,1 @ F,0,0,1,0,1,0,1 @ F,0,0,1,0,1,0,1 @ F,0,0,1,0,1,0,1 @ F,0,0,1,0,1,0,1 @ F,0,0,1,0,1,0,1 @ F,0,0,1,0,1,0,1 @ F,0,0,1,0,1,0,1 @ F,0,0,1,0,1,0,1 @ F,0,0,1,0,1,0,1 @ F,0,0,1,0,1,0,1 @ F,0,0,1,0,1,0,1 @ F,0,0,1,0,1,0,1 @ F,0,0,1,0,1,0,1 @ F,0,0,1,0,1,0,1 @ F,0,0,1,0,1,0,1 @ F,0,0,1,0,1,0,1 | F,0,0,1,0,1,0,1 @ F,0,0,1,0,1,0,1 @ F,0,0,1,0,1,0,1 @ F,0,0,1,0,1,0,1 @ F,0,0,1,0,1,0,1 @ F,0,0,1,0,1,0,1 @ F,0,0,1,0,1,0,1 | F,0,0,1,0,1,0,1 @ F,0,0,1,0,1,0,1 @ F,0,0,1,0,1,0,1 @ F,0,0,1,0,1,0,1 @ F,0,0,1,0,1,0,1 @ F,0,0,1,0,1,0,1 @ F,0,0,1,0,1,0,1 @ F,0,0,1,0,1,0,1 @ F,0,0,1,0,1,0,1 @ F,0,0,1,0,1,0,1 @ F,0,0,1,0,1,0,1 @ F,0,0,1,0,1,0,1 | F,0,0,1,0,1,0,1 @ F,0,0,1,0,1,0,1 @ F,0,0,1,0,1,0,1 @ F,0,0,1,0,1,0,1 @ F,0,0,1,0,1,0,1 @ F,0,0,1,0,1,0,1 @ F,0,0,1,0,1,0,1 @ F,0,0,1,0,1,0,1 @ F,0,0,1,0,1,0,1 @ F,0,0,1,0,1,0,1 @ F,0,0,1,0,1,0,1 @ F,0,0,1,0,1,0,1 @ F,0,0,1,0,1,0,1 @ F,0,0,1,0,1,0,1 @ F,0,0,1,0,1,0,1 @ F,0,0,1,0,1,0,1 @ F,0,0,1,0,1,0,1 @ F,0,0,1,0,1,0,1 @ F,0,0,1,0,1,0,1 @ F,0,0,1,0,1,0,1 @ F,0,0,1,0,1,0,1 @ F,0,0,1,0,1,0,1 @ F,0,0,1,0,1,0,1 @ F,0,0,1,0,1,0,1 @ F,0,0,1,0,1,0,1 @ F,0,0,1,0,1,0,1 @ F,0,0,1,0,1,0,1 @ F,0,0,1,0,1,0,1 @ F,0,0,1,0,1,0,1 | F,0,0,1,0,1,0,1 @ F,0,0,1,0,1,0,1 @ F,0,0,1,0,1,0,1 @ F,0,0,1,0,1,0,1 @ F,0,0,1,0,1,0,1 | F,0,0,1,0,1,0,1 @ F,0,0,1,0,1,0,1 @ F,0,0,1,0,1,0,1 @ F,0,0,1,0,1,0,1 @ F,0,0,1,0,1,0,1 @ F,0,0,1,0,1,0,1 @ F,0,0,1,0,1,0,1 @ F,0,0,1,0,1,0,1 @ F,0,0,1,0,1,0,1 @ F,0,0,1,0,1,0,1 @ F,0,0,1,0,1,0,1 @ F,0,0,1,0,1,0,1 @ F,0,0,1,0,1,0,1 @ F,0,0,1,0,1,0,1 @ F,0,0,1,0,1,0,1 @ F,0,0,1,0,1,0,1 @ F,0,0,1,0,1,0,1 @ F,0,0,1,0,1,0,1 @ F,0,0,1,0,1,0,1 | F,0,0,1,0,1,0,1 @ F,0,0,1,0,1,0,1 @ F,0,0,1,0,1,0,1 @ F,0,0,1,0,1,0,1 @ F,0,0,1,0,1,0,1 @ F,0,0,1,0,1,0,1 @ F,0,0,1,0,1,0,1 @ F,0,0,1,0,1,0,1 @ F,0,0,1,0,1,0,1 @ F,0,0,1,0,1,0,1 @ F,0,0,1,0,1,0,1 @ F,0,0,1,0,1,0,1 @ F,0,0,1,0,1,0,1 @ F,0,0,1,0,1,0,1"
       unit="px"
       method="arc"
       mode="F"
       radius="1"
       chamfer_steps="1"
       flexible="false"
       use_knot_distance="true"
       apply_no_radius="true"
       apply_with_radius="true"
       only_selected="false"
       hide_knots="false" />
  </defs>
  <g
     inkscape:label="Layer 1"
     inkscape:groupmode="layer"
     id="layer1"
     transform="translate(42.137559,-14.921469)">
    <g
       aria-label="DeltaFX"
       id="text294"
       style="font-size:40px"
       transform="translate(-21.386507,-30.028926)">
      <path
         id="path405"
         style="-inkscape-font-specification:'Commissioner Medium';fill:#f0f0f0;fill-opacity:1"
         d="m 33.130915,44.953494 -3.086199,0.332425 a 0.66809856,0.66809856 131.92609 0 0 -0.596549,0.664256 l 0,3.460156 v 4.878907 11.019531 4.5 4.220703 a 0.6,0.6 45 0 0 0.6,0.6 h 3.079297 a 0.6,0.6 135 0 0 0.6,-0.6 v -3.020703 -4.5 -11.019531 -5.140625 -4.859375 a 0.53884265,0.53884265 41.926094 0 0 -0.596549,-0.535744 z m -53.881967,1.756447 v 3.399609 4.939453 9.59961 4.841796 4.539063 a 0.6,0.6 45 0 0 0.6,0.6 h 1.758985 3 3.320312 c 0.331371,0 0.868663,7.05e-4 1.19996,-0.006 2.2158945,-0.04496 4.1469369,-0.341852 5.7942773,-0.89113 0.3143261,-0.104807 0.8160891,-0.297647 1.1203665,-0.428824 1.4422263,-0.621758 2.6541071,-1.42126 3.63411551,-2.397968 0.23467285,-0.233882 0.59263426,-0.635166 0.80140828,-0.892454 C 1.3305518,68.962874 1.9900006,67.78436 2.4580244,66.47805 2.5697814,66.166123 2.7286849,65.652631 2.8163624,65.333088 3.2017256,63.928622 3.416205,62.44137 3.4594906,60.870024 3.4686151,60.538788 3.468562,60.001417 3.46022,59.670159 3.4158405,57.907885 3.1739368,56.304271 2.7344291,54.859808 2.6379765,54.542812 2.4618437,54.034951 2.340775,53.726517 1.8290391,52.422818 1.1462879,51.278387 0.29266767,50.292725 0.07575878,50.042264 -0.29695742,49.654653 -0.53896196,49.428352 -1.4922101,48.536961 -2.6041292,47.823343 -3.8744287,47.288648 -4.1798193,47.160103 -4.6836553,46.97264 -4.9986768,46.869934 -6.3927114,46.415439 -7.9429745,46.165177 -9.651127,46.118117 c -0.3312345,-0.0091 -0.868554,-0.0082 -1.199925,-0.0082 h -2.360546 -3.480469 -3.458985 a 0.6,0.6 135 0 0 -0.6,0.6 z m 98.580078,0 v 3.399609 4.939453 9.59961 4.841796 4.539063 a 0.6,0.6 45 0 0 0.6,0.6 h 3.39961 a 0.6,0.6 135 0 0 0.6,-0.6 v -3.339063 -4.841796 -2.859375 a 0.6,0.6 135 0 1 0.6,-0.6 h 2.819531 4.580078 3.900391 a 0.6,0.6 135 0 0 0.6,-0.6 v -2.639844 a 0.6,0.6 45 0 0 -0.6,-0.6 h -2.58125 -4.679688 -4.039062 a 0.6,0.6 45 0 1 -0.6,-0.6 v -7.258985 a 0.6,0.6 135 0 1 0.6,-0.6 h 2.639844 5.240234 4.160156 a 0.6,0.6 135 0 0 0.6,-0.6 v -2.780468 a 0.6,0.6 45 0 0 -0.6,-0.6 l -16.639844,0 a 0.6,0.6 135 0 0 -0.6,0.6 z m 21.215734,-0.09076 c 0.772207,1.239082 1.50065,2.406096 2.18505,3.501473 0.17559,0.281026 0.46136,0.735977 0.63791,1.016404 0.64911,1.031074 1.29092,2.058216 1.92497,3.081755 0.1745,0.2817 0.45793,0.73811 0.63348,1.019164 l 2.64946,4.241978 a 0.99017271,0.99017271 89.225777 0 1 0.0139,1.026191 l -3.1772,5.406812 c -0.16788,0.285695 -0.44063,0.748572 -0.6093,1.033802 -0.64843,1.096513 -1.27787,2.158279 -1.8883,3.186368 -0.16917,0.284931 -0.44361,0.746809 -0.61251,1.031903 -0.58822,0.99288 -1.165423,1.974999 -1.731734,2.945973 -0.166949,0.286243 -0.03335,0.51847 0.298024,0.51847 h 4.05977 c 0.33137,0 0.73554,-0.231929 0.90248,-0.518176 0.46782,-0.802144 0.91333,-1.569476 1.3369,-2.302096 0.16585,-0.286876 0.43649,-0.750986 0.60476,-1.03645 l 1.23046,-2.087338 a 60.957887,60.957887 121.08267 0 1 0.6195,-1.027658 l 2.42312,-3.931565 a 0.38344699,0.38344699 179.06485 0 1 0.64612,-0.01055 l 2.60495,3.933126 c 0.18298,0.276272 0.47537,0.726971 0.65263,1.006945 0.42437,0.670273 0.85756,1.35853 1.29989,2.064723 0.17591,0.280829 0.4627,0.735131 0.64032,1.014875 0.48396,0.762204 0.98451,1.55728 1.5012,2.384958 0.17547,0.281094 0.58598,0.509202 0.91735,0.509202 h 4.36055 c 0.33137,0 0.45284,-0.224732 0.27125,-0.501922 -0.75357,-1.150354 -1.48711,-2.268829 -2.20118,-3.355993 -0.18192,-0.276969 -0.47447,-0.727581 -0.6537,-1.006296 -0.7085,-1.101745 -1.44539,-2.239194 -2.20947,-3.412416 -0.18084,-0.277676 -0.47491,-0.727303 -0.65664,-1.004402 l -2.99622,-4.568802 a 0.95739081,0.95739081 88.818589 0 1 -0.021,-1.016603 l 2.91902,-4.878461 c 0.17014,-0.284356 0.44355,-0.746833 0.61112,-1.032713 0.52086,-0.888612 1.0771,-1.830454 1.66926,-2.826012 0.1694,-0.284799 0.4452,-0.745859 0.61571,-1.029996 l 2.02317,-3.37144 a 0.33968801,0.33968801 60.483774 0 0 -0.29127,-0.514475 h -4.04024 c -0.33137,0 -0.7335,0.233106 -0.89887,0.520268 -0.48223,0.837431 -0.96799,1.6712 -1.45689,2.501966 -0.16807,0.285588 -0.43946,0.749258 -0.60576,1.035873 -0.46434,0.800238 -0.91559,1.575447 -1.35444,2.324746 -0.16747,0.285939 -0.4442,0.746413 -0.61768,1.028746 l -1.97237,3.210004 a 0.37607084,0.37607084 179.48957 0 1 -0.63728,0.0057 l -2.03432,-3.182295 c -0.17848,-0.279198 -0.46135,-0.735897 -0.63215,-1.019859 -0.45029,-0.748642 -0.9164,-1.519594 -1.39865,-2.312959 -0.17212,-0.283163 -0.45051,-0.742667 -0.62135,-1.026604 -0.50742,-0.843332 -1.02169,-1.700122 -1.54271,-2.570652 -0.17017,-0.284335 -0.57663,-0.514911 -0.908,-0.514911 l -4.200386,0 c -0.331371,0 -0.457968,0.22801 -0.282704,0.509238 z m -54.104978,0.947699 -3.043777,0.605656 a 0.73115206,0.73115206 129.37308 0 0 -0.588463,0.717094 v 2.499219 2.759766 a 0.6,0.6 135 0 1 -0.6,0.6 l -2.419141,0 a 0.6,0.6 135 0 0 -0.6,0.6 v 2.100781 a 0.6,0.6 45 0 0 0.6,0.6 l 2.419141,0 a 0.6,0.6 45 0 1 0.6,0.6 v 2.999219 3.18164 3.160156 c 0,0.331371 -0.0018,0.868806 0.01348,1.199796 0.04558,0.988238 0.206742,1.844936 0.483339,2.570893 0.117921,0.309494 0.365661,0.788503 0.552694,1.061826 0.367764,0.537437 0.823259,0.977401 1.365923,1.319369 0.280181,0.17656 0.769073,0.403934 1.08136,0.514385 0.698957,0.247212 1.486998,0.393225 2.3644,0.438225 0.330899,0.01697 0.868602,0.01679 1.199461,-9.04e-4 0.189862,-0.01016 0.378339,-0.02515 0.565448,-0.04494 0.32949,-0.03485 0.861277,-0.113956 1.186823,-0.175615 0.140338,-0.02658 0.276696,-0.05537 0.409072,-0.08637 0.322563,-0.07554 0.835698,-0.238493 1.139613,-0.370299 0.03112,-0.01349 0.06172,-0.0271 0.09183,-0.04083 0.3012,-0.137364 0.504676,-0.553227 0.477097,-0.883449 l -0.200911,-2.405724 c -0.02758,-0.330222 -0.264168,-0.434014 -0.551135,-0.268688 -0.154285,0.08889 -0.313011,0.169509 -0.476235,0.241794 -0.302828,0.134112 -0.819067,0.289506 -1.144192,0.352933 -0.121852,0.02377 -0.24191,0.0432 -0.360147,0.05829 -0.328482,0.04191 -0.868115,0.04448 -1.197031,0.0058 -0.616519,-0.0725 -1.126749,-0.262825 -1.53126,-0.570374 -0.26311,-0.200041 -0.599822,-0.62844 -0.749622,-0.923413 -0.267644,-0.527023 -0.427752,-1.185291 -0.480167,-1.974764 -0.02195,-0.330575 -0.01913,-0.8682 -0.01913,-1.199571 v -8.159375 a 0.6,0.6 135 0 1 0.6,-0.6 h 1.460156 3.939454 a 0.6,0.6 135 0 0 0.6,-0.6 v -2.100781 a 0.6,0.6 45 0 0 -0.6,-0.6 h -5.39961 a 0.6,0.6 45 0 1 -0.6,-0.6 v -0.61836 -2.660156 -2.820313 a 0.49237364,0.49237364 39.373081 0 0 -0.588463,-0.482906 z m -60.391615,2.382906 h 3.780469 c 0.331371,0 0.868733,-0.0013 1.199876,0.0105 1.1819317,0.04211 2.2401301,0.210927 3.1747127,0.507409 0.3157921,0.100181 0.8162722,0.29758 1.1153856,0.440044 0.7773514,0.37024 1.4567237,0.838486 2.038115,1.404687 0.2373298,0.231129 0.5913961,0.636579 0.7902335,0.901559 0.4869132,0.648882 0.8786936,1.383829 1.1751934,2.204692 0.1125585,0.31162 0.2646536,0.827409 0.3431387,1.149315 0.2271569,0.931682 0.3576395,1.939349 0.3924872,3.022131 0.010659,0.331184 0.010635,0.868609 1.23e-5,1.199796 -0.049947,1.557215 -0.2965239,2.982742 -0.7407119,4.277105 -0.1075489,0.313397 -0.306426,0.813141 -0.450955,1.111255 -0.5644991,1.164369 -1.3715788,2.12894 -2.4210959,2.894343 -0.2676844,0.19522 -0.7236804,0.481108 -1.0181034,0.632954 -1.2701959,0.65509 -2.8634177,1.013606 -4.7792532,1.074657 -0.331185,0.01055 -0.868523,0.0094 -1.199894,0.0094 h -3.39961 a 0.6,0.6 45 0 1 -0.6,-0.6 v -1.899609 -3.460938 -7.599609 -3.5 -3.179688 a 0.6,0.6 135 0 1 0.6,-0.6 z m 31.280682,4.334103 c -1.497309,0.06992 -2.817509,0.405714 -3.960522,1.007089 -0.293185,0.154254 -0.749744,0.439053 -1.018445,0.63286 -1.0027486,0.723254 -1.8132802,1.64637 -2.4305611,2.770512 -0.1594712,0.290416 -0.3861424,0.778159 -0.5077824,1.086349 -0.498844,1.263883 -0.7766467,2.667593 -0.833332,4.209845 -0.012171,0.331129 -0.012187,0.868608 1.4e-4,1.199731 0.058372,1.567985 0.3482024,2.991612 0.8684253,4.270952 0.1248047,0.306921 0.3565834,0.792326 0.5207868,1.080077 0.6602675,1.157059 1.5637414,2.114196 2.7104174,2.872564 0.276352,0.182769 0.742515,0.451286 1.040664,0.59574 1.347139,0.652694 2.976775,1.010284 4.889398,1.071367 0.331185,0.01058 0.868622,0.01228 1.199813,0.002 1.277271,-0.03979 2.508144,-0.228656 3.697016,-0.495373 0.323312,-0.07253 0.842403,-0.211721 1.155195,-0.321012 0.234263,-0.08185 0.456474,-0.168391 0.666706,-0.259497 0.303972,-0.131728 0.529763,-0.526819 0.515505,-0.857883 l -0.108524,-2.519862 c -0.01426,-0.331064 -0.262403,-0.471673 -0.563206,-0.332766 -0.28968,0.133771 -0.587326,0.255621 -0.892938,0.365494 -0.311797,0.112096 -0.825221,0.271744 -1.145888,0.355117 -0.960927,0.249838 -1.913448,0.359685 -2.863804,0.419918 -0.330658,0.02096 -0.867878,0.03414 -1.198803,0.01764 -1.0186,-0.05079 -1.911456,-0.233995 -2.678355,-0.549415 -0.306319,-0.125986 -0.780481,-0.382316 -1.052809,-0.570842 -0.583877,-0.404204 -1.063469,-0.904476 -1.43865,-1.500899 -0.176358,-0.280355 -0.408475,-0.766751 -0.521076,-1.07827 -0.186971,-0.517271 -0.318167,-1.081126 -0.396449,-1.688961 -0.04232,-0.328609 0.209635,-0.597006 0.541006,-0.597006 h 11.944531 c 0.331371,0 0.644487,-0.265215 0.677212,-0.59491 0.04655,-0.468935 0.06288,-0.937408 0.07226,-1.386221 0.0069,-0.33077 0.01211,-0.867702 -8.72e-4,-1.198797 -0.05414,-1.380806 -0.29861,-2.58641 -0.733399,-3.617013 -0.128769,-0.305225 -0.37688,-0.782922 -0.55299,-1.063516 -0.533954,-0.850737 -1.214122,-1.538321 -2.040956,-2.062123 -0.279839,-0.177279 -0.757507,-0.425616 -1.062013,-0.55609 -0.967979,-0.414757 -2.067209,-0.649995 -3.29813,-0.706916 -0.330985,-0.01531 -0.868595,-0.0153 -1.199575,1.57e-4 z m 47.878759,-0.0061 c -0.377396,0.0097 -0.751706,0.02871 -1.12286,0.05717 -0.33039,0.02533 -0.864998,0.08019 -1.193293,0.125103 -1.046723,0.143204 -2.047949,0.376583 -3.024631,0.633401 -0.320076,0.08416 -0.836148,0.232433 -1.150613,0.336896 -0.18208,0.06048 -0.358148,0.121642 -0.528192,0.183466 -0.311409,0.113219 -0.543219,0.482976 -0.522316,0.813687 l 0.164538,2.603171 c 0.0209,0.330711 0.281554,0.485664 0.586174,0.355253 0.279123,-0.119495 0.554574,-0.230469 0.826437,-0.33303 0.310029,-0.116959 0.816015,-0.297964 1.130965,-0.400903 0.776936,-0.253937 1.556538,-0.438318 2.325131,-0.59066 0.324793,-0.06438 0.855557,-0.146608 1.185813,-0.173462 0.09615,-0.0078 0.190844,-0.01441 0.284071,-0.01979 0.330774,-0.01909 0.868583,-0.02027 1.199295,-2.09e-4 0.402408,0.02441 0.782521,0.07413 1.140265,0.14956 0.324106,0.06834 0.842219,0.22392 1.13432,0.379326 0.253085,0.134648 0.477856,0.302384 0.674371,0.503032 0.231446,0.236314 0.524019,0.695553 0.637923,1.005947 0.143937,0.392234 0.223954,0.859886 0.240052,1.403248 0.0098,0.331131 -0.27208,0.641174 -0.599495,0.692221 l -4.714714,0.735064 c -0.327415,0.05105 -0.858776,0.131562 -1.183669,0.196613 -0.394278,0.07894 -0.786847,0.176478 -1.177747,0.292586 -0.317631,0.09434 -0.826522,0.268581 -1.130442,0.400432 -0.368182,0.15973 -0.718013,0.34622 -1.049589,0.559197 -0.278731,0.179034 -0.707202,0.505904 -0.944469,0.73695 -0.287003,0.27948 -0.543051,0.594927 -0.768264,0.946505 -0.17867,0.278919 -0.421078,0.760775 -0.528967,1.073837 -0.166003,0.481689 -0.269323,1.023793 -0.309745,1.626584 -0.02217,0.330564 -0.02213,0.868595 7.99e-4,1.199105 0.05307,0.765033 0.210307,1.453584 0.471844,2.065032 0.13024,0.304491 0.403155,0.769652 0.602902,1.033855 0.355838,0.470661 0.778347,0.869692 1.267895,1.197091 0.275322,0.18413 0.754894,0.430287 1.063947,0.549443 0.584817,0.225478 1.216177,0.363418 1.89359,0.413968 0.33038,0.02465 0.86848,0.02447 1.199014,0.0019 0.51958,-0.03554 1.010416,-0.118302 1.472292,-0.248639 0.318792,-0.08996 0.820866,-0.284209 1.121553,-0.423322 0.368925,-0.170682 0.70991,-0.36098 1.023296,-0.570855 0.275236,-0.184325 0.693725,-0.522721 0.93978,-0.744603 0.409998,-0.369719 0.767143,-0.752722 1.113524,-1.163222 0.213606,-0.253148 0.390388,-0.195943 0.40375,0.135158 l 0.08136,2.016125 a 0.62470168,0.62470168 43.844527 0 0 0.624194,0.599512 h 2.661328 a 0.6,0.6 135 0 0 0.6,-0.6 v -1.960156 -2.878907 -2.40039 -2.640625 -2.38086 c 0,-0.331371 0.0019,-0.868827 -0.01428,-1.199771 -0.05349,-1.095694 -0.257184,-2.037613 -0.610812,-2.826472 -0.135475,-0.302211 -0.408071,-0.76738 -0.605019,-1.033673 -0.455803,-0.616291 -1.02551,-1.110011 -1.709072,-1.481022 -0.291115,-0.158006 -0.788903,-0.363651 -1.103745,-0.466728 -0.845704,-0.276878 -1.805516,-0.436383 -2.878711,-0.479069 -0.331085,-0.01317 -0.868524,-0.01255 -1.199776,-0.004 z m -46.641139,3.285076 c 0.839889,0.09549 1.564177,0.398317 2.172136,0.908858 0.25357,0.212938 0.617164,0.613107 0.801951,0.887774 0.442823,0.658212 0.708414,1.476173 0.807517,2.44488 0.03372,0.329567 -0.229063,0.601787 -0.560409,0.605788 l -8.180947,0.09879 c -0.331346,0.004 -0.562122,-0.259073 -0.491314,-0.582731 0.05218,-0.238525 0.113665,-0.470456 0.18536,-0.695135 0.100694,-0.315557 0.313024,-0.810504 0.472441,-1.100884 0.292253,-0.53234 0.643513,-0.991066 1.054077,-1.376672 0.241403,-0.226728 0.675513,-0.547868 0.967006,-0.704891 0.479062,-0.258063 1.003909,-0.419818 1.574667,-0.485327 0.329032,-0.03776 0.868442,-0.03787 1.197515,-4.52e-4 z m 50.522323,7.567009 v 2.319531 c 0,0.331371 -0.119767,0.840894 -0.289817,1.12523 -0.210533,0.352028 -0.43943,0.67578 -0.686475,0.971391 -0.212429,0.254189 -0.592729,0.635453 -0.846506,0.84837 -0.247315,0.207497 -0.503799,0.391492 -0.769411,0.551947 -0.283503,0.171263 -0.772541,0.398875 -1.088439,0.498253 -0.238473,0.07502 -0.478849,0.129386 -0.721251,0.163107 -0.327951,0.04562 -0.868282,0.04664 -1.19632,0.0016 -0.347369,-0.04768 -0.673398,-0.138326 -0.977776,-0.272013 -0.303019,-0.133091 -0.760021,-0.436416 -0.956539,-0.701295 -0.207303,-0.279414 -0.342523,-0.629218 -0.405928,-1.049277 -0.0494,-0.327302 -0.04878,-0.868534 0.002,-1.195665 0.02335,-0.15053 0.05603,-0.294669 0.09806,-0.432412 0.09652,-0.316264 0.369273,-0.787201 0.589339,-1.034234 0.08245,-0.09255 0.170651,-0.180129 0.264566,-0.262742 0.248468,-0.218567 0.714642,-0.494467 1.021072,-0.619746 0.175476,-0.07174 0.361046,-0.1341 0.556735,-0.187073 0.319718,-0.08655 0.850974,-0.172282 1.177076,-0.231141 0.56016,-0.101105 1.04675,-0.192562 1.460181,-0.274372 0.325062,-0.06432 0.854269,-0.159513 1.175179,-0.241597 0.358092,-0.09159 0.706399,-0.211292 1.042319,-0.344384 0.307719,-0.121919 0.551959,0.03514 0.551959,0.36651 z"
         sodipodi:nodetypes="cccccccccccccccccccccssccscccscccccccccccccccccccccccccccccccsccccccccccccccccccccccccccccccccsccscccccscscccccccccssccssssccccccsccscscccccccccccscssccccccsccccsscsccscccccccccscsssccccssccscscscsccc"
         inkscape:path-effect="#path-effect484"
         inkscape:original-d="m 33.727464,44.889238 -4.279297,0.460937 v 4.660156 4.878907 11.019531 4.5 4.220703 h 4.279297 v -4.220703 -4.5 -11.019531 -5.140625 z m -54.478516,1.220703 v 4.599609 4.939453 9.59961 4.841796 4.539063 h 2.958985 3 3.320312 c 2.7333307,0 5.0523199,-0.366277 6.9589846,-1.099609 1.9066648,-0.733333 3.4415637,-1.753882 4.60156253,-3.060547 C 1.2621243,69.16265 2.1140531,67.6421 2.6473859,65.908769 3.194052,64.162104 3.4676984,62.283428 3.4676984,60.270097 c 0,-2.239998 -0.3065892,-4.233804 -0.9199219,-5.980469 C 1.9477771,52.542963 1.0609524,51.063507 -0.11237975,49.850175 -1.2857119,48.62351 -2.7260273,47.695591 -4.4326922,47.068925 -6.1260239,46.428926 -8.0643873,46.109941 -10.251052,46.109941 h -3.560546 -3.480469 z m 98.580078,0 v 4.599609 4.939453 9.59961 4.841796 4.539063 h 4.59961 v -4.539063 -4.841796 -2.859375 h 4.019531 4.580078 3.900391 v -3.839844 h -3.78125 -4.679688 -4.039062 v -8.458985 h 3.839844 5.240234 4.160156 v -3.980468 z m 20.898438,0 c 1.013334,1.626665 1.953646,3.132866 2.820316,4.519531 0.86666,1.373332 1.72054,2.739611 2.56054,4.099609 l 3.28516,5.259766 -3.78516,6.441406 c -0.86666,1.466665 -1.7,2.872085 -2.5,4.21875 -0.8,1.346666 -1.579841,2.673804 -2.33984,3.980469 h 5.25977 c 0.69333,-1.186665 1.33945,-2.299845 1.93945,-3.339844 l 1.83984,-3.121094 3.05274,-4.953125 3.26757,4.933594 c 0.62667,0.986666 1.27279,2.013413 1.93946,3.080078 0.68,1.066666 1.39396,2.200392 2.14062,3.400391 h 5.56055 c -0.98667,-1.506665 -1.93938,-2.959376 -2.85938,-4.359375 -0.90666,-1.413332 -1.86132,-2.88659 -2.86132,-4.419922 l -3.6543,-5.572266 3.53516,-5.908203 c 0.69333,-1.186665 1.45263,-2.472709 2.27929,-3.859375 l 2.64063,-4.40039 h -5.24024 c -0.68,1.186665 -1.36721,2.36573 -2.06054,3.539062 -0.68,1.173332 -1.33232,2.294663 -1.95899,3.361328 l -2.60059,4.232422 -2.68066,-4.193359 c -0.64,-1.066666 -1.31286,-2.179845 -2.01953,-3.339844 -0.70667,-1.173332 -1.42682,-2.372944 -2.16016,-3.599609 z m -53.199219,1.339843 -4.220703,0.839844 v 3.699219 2.759766 h -3.619141 v 3.300781 h 3.619141 v 4.199219 3.18164 3.160156 c 0,1.519999 0.246902,2.758751 0.740234,3.71875 0.506667,0.96 1.241173,1.667761 2.201172,2.121094 0.973333,0.453333 2.1462,0.679688 3.519532,0.679688 0.599999,0 1.186432,-0.04729 1.759765,-0.140625 0.586666,-0.08 1.113412,-0.193177 1.580078,-0.339844 0.48,-0.16 0.873022,-0.339063 1.179688,-0.539063 L 51.98723,70.488847 c -0.466667,0.346666 -0.979063,0.607917 -1.539063,0.78125 -0.546666,0.16 -1.061016,0.240234 -1.541016,0.240234 -1.159998,0 -2.011927,-0.341485 -2.558593,-1.021484 -0.546666,-0.693333 -0.820313,-1.720079 -0.820313,-3.080078 v -9.359375 h 2.660156 3.939454 v -3.300781 h -6.59961 v -1.81836 -2.660156 z m -61.580078,2.5 h 4.980469 c 1.679998,0 3.1265115,0.238751 4.3398436,0.71875 1.2133321,0.48 2.2133341,1.173413 3,2.080079 0.7866659,0.893332 1.3669014,1.973569 1.7402344,3.240234 0.373333,1.253332 0.5585938,2.654507 0.5585938,4.201172 0,2.026665 -0.3189851,3.839455 -0.9589844,5.439453 -0.6399994,1.599998 -1.6934911,2.859298 -3.1601563,3.779297 -1.4666652,0.919999 -3.4337266,1.380859 -5.9003901,1.380859 h -4.59961 v -3.099609 -3.460938 -7.599609 -3.5 z m 32.480469,4.320313 c -1.986665,0 -3.68008,0.440313 -5.080078,1.320312 -1.3999988,0.866666 -2.4678395,2.078674 -3.2011721,3.638672 -0.7199993,1.559999 -1.0800781,3.347997 -1.0800781,5.361328 0,2.039998 0.3744278,3.846591 1.1210937,5.419922 0.7599992,1.573332 1.9266685,2.812085 3.5000005,3.71875 1.573331,0.906666 3.579533,1.361329 6.019531,1.361328 1.70566,0.01103 3.329238,-0.257163 4.880859,-0.640625 0.679999,-0.199999 1.272631,-0.434505 1.779297,-0.701171 l -0.160156,-3.71875 c -0.626666,0.333333 -1.293334,0.606979 -2,0.820312 -1.359705,0.43602 -2.700231,0.558001 -4.039063,0.619141 -1.533332,0 -2.80698,-0.273647 -3.820312,-0.820313 -0.999999,-0.546666 -1.746902,-1.326511 -2.240235,-2.339844 -0.386106,-0.815113 -0.61002,-1.765913 -0.685546,-2.839843 h 13.144531 c 0.14341,-0.875391 0.145377,-1.777868 0.160156,-2.580078 0,-1.893332 -0.333334,-3.479767 -1,-4.759766 -0.666666,-1.279999 -1.619376,-2.24086 -2.859375,-2.880859 -1.239999,-0.653333 -2.719455,-0.978516 -4.439453,-0.978516 z m 47.878906,0 c -0.786666,0 -1.560313,0.03914 -2.320312,0.119141 -1.476177,0.148243 -2.857296,0.49401 -4.199219,0.859375 -0.613333,0.186666 -1.166824,0.380078 -1.660156,0.580078 l 0.240234,3.800781 c 0.666666,-0.306666 1.312787,-0.565964 1.939453,-0.779297 1.162053,-0.434919 2.337588,-0.692864 3.480469,-0.900391 0.533333,-0.06667 1.027136,-0.09961 1.480469,-0.09961 0.866665,0 1.640313,0.105026 2.320312,0.318359 0.693333,0.213334 1.226277,0.614506 1.599609,1.201172 0.386667,0.586666 0.553334,1.432397 0.5,2.539063 l -5.90039,0.919922 c -0.786666,0.12 -1.566511,0.313411 -2.339844,0.580078 -0.773332,0.266666 -1.472943,0.641094 -2.099609,1.121094 -0.626666,0.479999 -1.132865,1.099375 -1.519532,1.859375 -0.373332,0.746666 -0.560546,1.672631 -0.560546,2.779296 0,1.253333 0.253099,2.321173 0.759765,3.201172 0.52,0.866666 1.225808,1.533334 2.119141,2 0.893332,0.453333 1.907683,0.679688 3.041015,0.679688 0.973333,0 1.85396,-0.152318 2.640625,-0.458985 0.8,-0.306666 1.485261,-0.69349 2.058594,-1.160156 0.779332,-0.623352 1.357867,-1.271155 1.950329,-2.01593 l 0.129749,3.215149 h 3.861328 v -3.160156 -2.878907 -2.40039 -2.640625 -2.38086 c 0,-1.626665 -0.300391,-2.945652 -0.90039,-3.958984 -0.6,-1.026666 -1.460079,-1.773568 -2.580078,-2.240234 -1.119999,-0.466666 -2.467684,-0.699219 -4.041016,-0.699218 z m -47.839844,3.259766 c 1.319999,0 2.38784,0.452709 3.201172,1.359375 0.775513,0.838054 1.170763,2.018497 1.21875,3.513671 l -9.380859,0.113282 c 0.100692,-0.663133 0.262244,-1.283181 0.501953,-1.847657 0.426666,-0.973332 1.019298,-1.738828 1.779297,-2.298828 0.759999,-0.559999 1.653022,-0.839843 2.679687,-0.839843 z m 51.121094,7 v 3.519531 c -0.386666,0.759999 -0.847526,1.40612 -1.380859,1.939453 -0.533333,0.533333 -1.113569,0.946901 -1.740235,1.240234 -0.613332,0.28 -1.238907,0.419922 -1.878906,0.419922 -0.799999,0 -1.501563,-0.19961 -2.101562,-0.599609 -0.586666,-0.4 -0.878907,-1.087215 -0.878907,-2.060547 0,-0.613333 0.125574,-1.140079 0.378907,-1.580078 0.266666,-0.453333 0.634896,-0.81961 1.101562,-1.09961 0.466666,-0.279999 1.026355,-0.473411 1.679688,-0.580078 1.133332,-0.199999 2.012005,-0.366666 2.638671,-0.5 0.772161,-0.119665 1.507394,-0.398071 2.181641,-0.699218 z" />
    </g>
  </g>
</svg>
