<?xml version="1.0" encoding="UTF-8" standalone="no"?>
<svg
   height="64"
   version="1.1"
   viewBox="0 0 64 64"
   width="64"
   xml:space="preserve"
   id="svg9035"
   sodipodi:docname="artstation_colorful.svg"
   inkscape:version="1.2 (dc2aedaf03, 2022-05-15)"
   xmlns:inkscape="http://www.inkscape.org/namespaces/inkscape"
   xmlns:sodipodi="http://sodipodi.sourceforge.net/DTD/sodipodi-0.dtd"
   xmlns="http://www.w3.org/2000/svg"
   xmlns:svg="http://www.w3.org/2000/svg"><defs
     id="defs9039"><inkscape:path-effect
       effect="fillet_chamfer"
       id="path-effect9159"
       is_visible="true"
       lpeversion="1"
       nodesatellites_param="F,0,0,1,0,1.5,0,1 @ F,0,0,1,0,1.5,0,1 @ F,0,0,1,0,1.5,0,1 @ F,0,0,1,0,1.5,0,1 @ F,0,0,1,0,1.5,0,1 | F,0,0,1,0,1.5,0,1 @ F,0,0,1,0,1.5,0,1 @ F,0,0,1,0,1.5,0,1 @ F,0,0,1,0,1.5,0,1 @ F,0,0,1,0,1.5,0,1 @ F,0,0,1,0,1.5,0,1 | F,0,0,1,0,1.5,0,1 @ F,0,0,1,0,1.5,0,1 @ F,0,0,1,0,1.5,0,1"
       unit="px"
       method="auto"
       mode="F"
       radius="1.5"
       chamfer_steps="1"
       flexible="false"
       use_knot_distance="true"
       apply_no_radius="true"
       apply_with_radius="true"
       only_selected="false"
       hide_knots="false" /></defs><sodipodi:namedview
     id="namedview9037"
     pagecolor="#505050"
     bordercolor="#eeeeee"
     borderopacity="1"
     inkscape:showpageshadow="0"
     inkscape:pageopacity="0"
     inkscape:pagecheckerboard="0"
     inkscape:deskcolor="#505050"
     showgrid="false"
     inkscape:zoom="11.313709"
     inkscape:cx="21.92031"
     inkscape:cy="36.239222"
     inkscape:window-width="1920"
     inkscape:window-height="1009"
     inkscape:window-x="-8"
     inkscape:window-y="115"
     inkscape:window-maximized="1"
     inkscape:current-layer="svg9035" /><path
     d="m 0.11296462,48.948878 3.96701648,6.854861 c 0.4149477,0.717015 1.0443785,1.913999 1.5740395,2.548671 0.8949966,1.072439 2.1233567,1.852846 3.5287522,2.179619 0.8051375,0.187206 2.1586472,0.169638 2.9870742,0.169638 H 45.473733 A 0.86628501,0.86628501 120.00744 0 0 46.22407,59.402434 L 40.19288,48.949841 a 2.5972976,2.5972976 30.007436 0 0 -2.249663,-1.299233 l -37.08158159,0 a 0.86500218,0.86500218 119.97068 0 0 -0.74867079,1.29827 z M 62.193245,42.863272 42.54111,8.4894404 C 42.129939,7.7702539 41.491281,6.5772921 40.947613,5.9546323 40.06237,4.9407672 38.867018,4.2009477 37.508486,3.884659 36.703401,3.6972221 35.349884,3.7146092 34.521457,3.7146092 H 26.276761 A 0.86790771,0.86790771 120.05389 0 0 25.524316,5.015056 l 31.234271,54.335156 a 0.86411769,0.86411769 0.05310774 0 0 1.497519,0.0014 l 3.677188,-6.369479 c 0.414194,-0.717451 1.136977,-1.855725 1.467649,-2.61425 0.498617,-1.143774 0.945526,-2.904946 0.213115,-4.867377 -0.289002,-0.774354 -1.009642,-1.918036 -1.420813,-2.637222 z M 33.337917,37.078429 20.146321,14.235919 a 0.86625717,0.86625717 1.1788458e-4 0 0 -1.500301,-3e-6 L 5.4542946,37.078432 a 0.86590748,0.86590748 60.003378 0 0 0.7498468,1.29895 H 32.588065 a 0.86591159,0.86591159 119.99674 0 0 0.749852,-1.298953 z"
     style="fill:#0099e5;stroke-width:0.140519"
     id="path9029"
     inkscape:path-effect="#path-effect9159"
     inkscape:original-d="m -0.63836459,47.650608 5.46967489,9.451401 c 1.0812884,2.137002 3.2816644,3.599658 5.8385367,3.599658 H 46.973733 L 39.443217,47.650608 Z M 62.937737,44.165474 41.796618,7.187238 C 40.702683,5.1266777 38.527459,3.7146092 36.021457,3.7146092 H 24.776761 l 32.729381,56.9360498 5.177116,-8.967597 c 0.241833,-0.406942 2.671393,-3.778117 0.254479,-7.517588 z M 34.088065,38.377382 19.396173,12.936966 4.7041414,38.377382 Z" /></svg>
