<?xml version="1.0" encoding="UTF-8" standalone="no"?>
<svg
   width="64mm"
   height="64mm"
   viewBox="0 0 226.77165 226.77165"
   version="1.1"
   id="svg6"
   sodipodi:docname="mastodon.svg"
   inkscape:version="1.2 (dc2aedaf03, 2022-05-15)"
   xmlns:inkscape="http://www.inkscape.org/namespaces/inkscape"
   xmlns:sodipodi="http://sodipodi.sourceforge.net/DTD/sodipodi-0.dtd"
   xmlns="http://www.w3.org/2000/svg"
   xmlns:svg="http://www.w3.org/2000/svg">
  <defs
     id="defs10">
    <inkscape:path-effect
       effect="fillet_chamfer"
       id="path-effect2336"
       is_visible="true"
       lpeversion="1"
       nodesatellites_param="F,0,0,1,0,0,0,1 @ F,0,0,1,0,2.6458333,0,1 @ F,0,0,1,0,2.6458333,0,1 @ F,0,0,1,0,2.6458333,0,1 @ F,0,0,1,0,2.6458333,0,1 @ F,0,0,1,0,2.6458333,0,1 @ F,0,0,1,0,2.6458333,0,1 @ F,0,0,1,0,2.6458333,0,1 @ F,0,0,1,0,2.6458333,0,1 @ F,0,0,1,0,2.6458333,0,1 @ F,0,0,1,0,2.6458333,0,1 @ F,0,0,1,0,2.6458333,0,1 @ F,0,0,1,0,2.6458333,0,1 @ F,0,0,1,0,2.6458333,0,1 @ F,0,0,1,0,2.6458333,0,1 @ F,0,0,1,0,2.6458333,0,1 @ F,0,0,1,0,2.6458333,0,1 @ F,0,0,1,0,2.6458333,0,1 @ F,0,0,1,0,2.6458333,0,1 @ F,0,0,1,0,2.6458333,0,1 @ F,0,0,1,0,2.6458333,0,1 @ F,0,0,1,0,2.6458333,0,1"
       unit="px"
       method="auto"
       mode="F"
       radius="10"
       chamfer_steps="1"
       flexible="false"
       use_knot_distance="true"
       apply_no_radius="true"
       apply_with_radius="true"
       only_selected="false"
       hide_knots="false" />
    <inkscape:path-effect
       effect="fillet_chamfer"
       id="path-effect2334"
       is_visible="true"
       lpeversion="1"
       nodesatellites_param="F,0,0,1,0,2.6458333,0,1 @ F,0,0,1,0,2.6458333,0,1 @ F,0,0,1,0,2.6458333,0,1 @ F,0,0,1,0,2.6458333,0,1 @ F,0,0,1,0,2.6458333,0,1 @ F,0,0,1,0,2.6458333,0,1 @ F,0,0,1,0,2.6458333,0,1 @ F,0,0,1,0,2.6458333,0,1 @ F,0,0,1,0,2.6458333,0,1 @ F,0,0,1,0,2.6458333,0,1 @ F,0,0,1,0,2.6458333,0,1 @ F,0,0,1,0,2.6458333,0,1 @ F,0,0,1,0,2.6458333,0,1 @ F,0,0,1,0,2.6458333,0,1 @ F,0,0,1,0,2.6458333,0,1 @ F,0,0,1,0,2.6458333,0,1 @ F,0,0,1,0,2.6458333,0,1 | F,0,0,1,0,2.6458333,0,1 @ F,0,0,1,0,2.6458333,0,1 @ F,0,0,1,0,2.6458333,0,1 @ F,0,0,1,0,2.6458333,0,1 @ F,0,0,1,0,2.6458333,0,1 @ F,0,0,1,0,2.6458333,0,1 @ F,0,0,1,0,2.6458333,0,1 @ F,0,0,1,0,2.6458333,0,1 @ F,0,0,1,0,2.6458333,0,1 @ F,0,0,1,0,2.6458333,0,1 @ F,0,0,1,0,2.6458333,0,1 @ F,0,0,1,0,2.6458333,0,1 @ F,0,0,1,0,2.6458333,0,1 @ F,0,0,1,0,2.6458333,0,1 @ F,0,0,1,0,2.6458333,0,1 @ F,0,0,1,0,2.6458333,0,1 @ F,0,0,1,0,2.6458333,0,1 @ F,0,0,1,0,2.6458333,0,1 @ F,0,0,1,0,2.6458333,0,1 @ F,0,0,1,0,2.6458333,0,1 @ F,0,0,1,0,2.6458333,0,1"
       unit="px"
       method="auto"
       mode="F"
       radius="10"
       chamfer_steps="1"
       flexible="false"
       use_knot_distance="true"
       apply_no_radius="true"
       apply_with_radius="true"
       only_selected="false"
       hide_knots="false" />
  </defs>
  <sodipodi:namedview
     id="namedview8"
     pagecolor="#505050"
     bordercolor="#eeeeee"
     borderopacity="1"
     inkscape:showpageshadow="0"
     inkscape:pageopacity="0"
     inkscape:pagecheckerboard="0"
     inkscape:deskcolor="#505050"
     inkscape:document-units="mm"
     showgrid="false"
     inkscape:zoom="2.3629555"
     inkscape:cx="20.525143"
     inkscape:cy="118.07247"
     inkscape:window-width="1920"
     inkscape:window-height="1009"
     inkscape:window-x="-8"
     inkscape:window-y="115"
     inkscape:window-maximized="1"
     inkscape:current-layer="svg6" />
  <path
     id="path2"
     d="M 110.38985,-0.00488782 C 83.744625,0.37764982 58.308963,3.2612878 42.321912,9.7584514 40.968296,10.308563 38.821073,11.317023 37.567125,12.066121 30.328329,16.390512 8.6263777,32.588411 7.6869133,71.783561 c -0.035009,1.460598 -0.031369,3.829801 -0.035029,5.291049 -0.025014,9.98563 -0.166906,21.5259 0.081534,33.73402 0.029714,1.46012 0.087838,3.82791 0.1309276,5.28853 1.3648897,46.26596 9.2451539,91.29481 50.6919069,103.94228 1.397548,0.42646 3.689314,1.02928 5.106815,1.38414 18.178373,4.5507 34.00603,5.72903 47.101742,5.24828 1.46025,-0.0536 3.82605,-0.184 5.28328,-0.29205 18.15236,-1.34595 30.26662,-5.78613 35.12455,-7.88722 1.34056,-0.5798 2.34153,-2.30421 2.27517,-3.76395 l -0.60814,-13.37621 c -0.0664,-1.45974 -1.25334,-2.29674 -2.66506,-1.91984 -5.41739,1.44633 -18.82798,4.54714 -33.83382,4.42166 -1.46094,-0.0122 -3.82872,-0.0949 -5.28883,-0.15277 -18.896115,-0.74853 -38.049983,-3.01007 -42.281617,-24.60747 -0.280915,-1.43373 -0.594119,-3.78455 -0.711647,-5.24087 -0.04684,-0.58043 -0.08412,-1.16961 -0.111824,-1.76697 -0.0677,-1.45955 1.092263,-2.37031 2.520718,-2.06259 5.923928,1.27615 21.447228,4.29028 40.30003,5.35596 1.45773,0.0824 3.82354,0.19159 5.28414,0.23459 13.65965,0.40208 26.61557,-0.92595 39.69531,-2.46729 1.45099,-0.17099 3.80405,-0.44812 5.24889,-0.66609 25.80934,-3.89368 48.06998,-19.22869 52.9751,-33.99161 0.46043,-1.38575 0.90285,-3.71897 1.15549,-5.1582 3.65772,-20.83696 4.00835,-47.81545 4.02331,-56.258178 0.003,-1.460235 -0.004,-3.828766 -0.039,-5.289565 -0.93955,-39.195271 -22.64059,-55.393017 -29.87874,-59.717204 -1.25376,-0.749017 -3.40082,-1.757463 -4.75444,-2.3075617 -15.98751,-6.497154 -41.4379,-9.38078584 -68.08407,-9.7633199 -1.46109,-0.0209756 -2.96461,-0.0297731 -3.35807,-0.0297731 z M 82.864022,38.485809 c 9.835123,0.583002 17.568058,4.479674 23.099428,11.690811 0.88914,1.159153 2.13361,3.177428 2.8823,4.432309 l 3.16886,5.31134 a 1.5785618,1.5785618 2.143683e-5 0 0 2.71124,1e-6 l 3.16887,-5.311342 c 0.74869,-1.25488 1.99306,-3.273216 2.88212,-4.43243 5.53057,-7.21112 13.26356,-11.107757 23.09962,-11.690704 1.45848,-0.08644 3.83031,-0.08674 5.28849,0.0041 8.28769,0.516527 15.20975,3.498133 20.78828,8.84481 1.0547,1.010868 2.62553,2.790136 3.49462,3.964373 4.70463,6.356434 7.23944,14.460924 7.6195,24.302508 0.0564,1.460074 0.0503,3.829771 0.0503,5.291024 v 54.282677 a 2.6458333,2.6458333 135 0 1 -2.64583,2.64583 h -18.31109 a 2.6458333,2.6458333 45 0 1 -2.64583,-2.64583 V 82.64326 c 0,-1.461253 0.0127,-3.832151 -0.0867,-5.289733 -0.6431,-9.425564 -4.86275,-14.655597 -12.65994,-15.582495 -1.4502,-0.172393 -3.82944,-0.170758 -5.28057,-0.0057 -8.93017,1.01551 -13.70855,7.403925 -14.31884,19.061816 -0.0764,1.459089 -0.067,3.829263 -0.067,5.290516 v 26.358887 a 2.6458333,2.6458333 135 0 1 -2.64583,2.64583 H 104.2845 a 2.6458333,2.6458333 45 0 1 -2.64583,-2.64583 V 86.117623 c 0,-1.461253 0.009,-3.831428 -0.067,-5.290516 -0.61046,-11.657906 -5.390173,-18.046323 -14.320604,-19.06182 -1.451122,-0.16501 -3.83037,-0.166648 -5.280562,0.0057 -7.79719,0.926898 -12.016842,6.156932 -12.659941,15.582495 -0.09945,1.457582 -0.08673,3.82848 -0.08673,5.289733 v 52.53207 a 2.6458333,2.6458333 135 0 1 -2.645833,2.64583 H 48.266877 a 2.6458333,2.6458333 45 0 1 -2.645833,-2.64583 V 80.892653 c 0,-1.461253 -0.0061,-3.83095 0.0503,-5.291024 0.380135,-9.84167 2.915452,-17.946214 7.621083,-24.302673 0.869213,-1.174149 2.440046,-2.953417 3.494681,-3.964355 5.577752,-5.346646 12.49986,-8.328209 20.788424,-8.844681 1.45819,-0.09086 3.830013,-0.09057 5.288493,-0.0041 z"
     style="fill:#949494;fill-opacity:1;stroke-width:0.977571"
     inkscape:path-effect="#path-effect2334"
     inkscape:original-d="M 113.03551,-0.0346617 C 84.039559,0.20239949 56.147638,3.3423162 39.893087,10.807286 c 0,0 -32.2376589,14.420378 -32.2376589,63.621494 0,11.266498 -0.2189837,24.737523 0.1378295,39.0235 1.1706404,48.116 8.8208074,95.53665 53.3075904,107.31148 20.511871,5.42918 38.123663,6.56664 52.306982,5.78703 25.7211,-1.42604 40.16014,-9.17905 40.16014,-9.17905 l -0.84846,-18.66241 c 0,0 -18.38089,5.79523 -39.02349,5.08893 -20.45199,-0.7014 -42.043245,-2.20507 -45.351096,-27.31518 -0.305491,-2.20564 -0.458237,-4.5649 -0.458237,-7.04181 0,0 20.077431,4.90768 45.521143,6.07343 15.55804,0.71362 30.1475,-0.91144 44.96624,-2.67962 28.41798,-3.39339 53.16191,-20.9032 56.27182,-36.90237 4.90007,-25.20298 4.49643,-61.50393 4.49643,-61.50393 0,-49.201116 -32.23585,-63.621494 -32.23585,-63.621494 C 170.65314,3.3423162 142.74389,0.20239949 113.74793,-0.0346617 Z M 80.219694,38.408879 c 12.077885,0 21.222956,4.64219 27.270436,13.927887 l 5.8801,9.855666 5.88011,-9.855666 c 6.04628,-9.285697 15.19135,-13.927887 27.27045,-13.927887 10.43801,0 18.8484,3.669369 25.27103,10.82763 6.22589,7.158258 9.32582,16.834672 9.32582,29.010311 v 59.57434 H 157.51489 V 79.997427 c 0,-12.18908 -5.12835,-18.376002 -15.38673,-18.376002 -11.34225,0 -17.02636,7.338335 -17.02636,21.850365 v 31.65055 H 101.63867 V 83.47179 c 0,-14.51203 -5.685874,-21.850365 -17.028139,-21.850365 -10.258379,0 -15.386725,6.186922 -15.386725,18.376002 V 137.82116 H 45.621044 V 78.24682 c 0,-12.175639 3.100496,-21.852053 9.32762,-29.010311 6.421416,-7.158261 14.831799,-10.82763 25.27103,-10.82763 z" />
  <path
     fill="#ffffff"
     d="m 181.11764,78.24678 v 56.92858 a 2.6458333,2.6458333 135 0 1 -2.64583,2.64583 h -18.31057 a 2.6458333,2.6458333 45 0 1 -2.64583,-2.64583 V 82.643681 c 0,-1.461253 0.0127,-3.832151 -0.0867,-5.289733 -0.64313,-9.425558 -4.86296,-14.65551 -12.66019,-15.58239 -1.4502,-0.172388 -3.82944,-0.170755 -5.28056,-0.0057 -8.93025,1.015607 -13.70899,7.404608 -14.31931,19.062612 -0.0764,1.459089 -0.067,3.829263 -0.067,5.290516 l 0,26.358418 a 2.6458333,2.6458333 135 0 1 -2.64583,2.64583 h -18.17128 a 2.6458333,2.6458333 45 0 1 -2.64583,-2.64583 l 0,-26.358418 c 0,-1.461253 0.009,-3.831428 -0.067,-5.290516 -0.61045,-11.658015 -5.390113,-18.047018 -14.320545,-19.062615 -1.45112,-0.165026 -3.830369,-0.166661 -5.280561,0.0057 -7.797235,0.926881 -12.017059,6.156833 -12.660185,15.58239 -0.09945,1.457582 -0.08673,3.82848 -0.08673,5.289733 v 52.531679 a 2.6458333,2.6458333 135 0 1 -2.645833,2.64583 H 48.267203 A 2.6458333,2.6458333 45 0 1 45.62137,135.17536 V 80.892613 c 0,-1.461253 -0.0061,-3.83095 0.05029,-5.291024 0.380093,-9.841564 2.915144,-17.945464 7.620716,-24.301796 0.869217,-1.174147 2.44005,-2.953413 3.494673,-3.964364 5.577637,-5.346668 12.499172,-8.32836 20.787625,-8.844858 1.458189,-0.09087 3.830013,-0.09057 5.288493,-0.0041 9.835302,0.583004 17.569211,4.479721 23.100781,11.690886 0.88916,1.159138 2.13356,3.177455 2.88216,4.432388 l 3.16794,5.310628 a 1.5784779,1.5784779 0.00265838 0 0 2.71113,1.25e-4 l 3.16876,-5.310878 c 0.74871,-1.254864 1.99311,-3.273187 2.88219,-4.43239 5.53073,-7.211145 13.2647,-11.107825 23.10095,-11.690774 1.45848,-0.08644 3.83031,-0.08674 5.28849,0.0042 8.28755,0.516554 15.20904,3.498288 20.78745,8.844985 1.05469,1.010882 2.62552,2.790148 3.49463,3.964373 5.11971,6.917058 7.66999,15.90359 7.66999,26.946832"
     id="path4-6"
     style="display:inline;fill:#949494;fill-opacity:0.298039;stroke-width:0.977571"
     inkscape:path-effect="#path-effect2336"
     inkscape:original-d="m 181.11764,78.24678 v 59.57441 H 157.51541 V 79.997848 c 0,-12.189087 -5.12859,-18.375893 -15.38698,-18.375893 -11.34226,0 -17.02683,7.339117 -17.02683,21.851174 V 115.12321 H 101.63866 V 83.473129 c 0,-14.512057 -5.685808,-21.851174 -17.028079,-21.851174 -10.25839,0 -15.386973,6.186806 -15.386973,18.375893 V 137.82119 H 45.62137 V 78.24678 c 0,-12.175653 3.100123,-21.851165 9.327252,-29.009431 6.421422,-7.158266 14.83098,-10.827824 25.270219,-10.827824 12.077894,0 21.224289,4.642243 27.271809,13.927946 l 5.87886,9.855142 5.8801,-9.855142 c 6.04628,-9.285703 15.19267,-13.927946 27.2718,-13.927946 10.43799,0 18.84756,3.669558 25.27019,10.827824 6.22592,7.158266 9.32604,16.833778 9.32604,29.009431" />
</svg>
