<?xml version="1.0" encoding="UTF-8" standalone="no"?>
<svg
   width="64mm"
   height="64mm"
   viewBox="0 0 226.77165 226.77165"
   version="1.1"
   id="svg6"
   sodipodi:docname="mastodon_colorful.svg"
   inkscape:version="1.2 (dc2aedaf03, 2022-05-15)"
   xmlns:inkscape="http://www.inkscape.org/namespaces/inkscape"
   xmlns:sodipodi="http://sodipodi.sourceforge.net/DTD/sodipodi-0.dtd"
   xmlns="http://www.w3.org/2000/svg"
   xmlns:svg="http://www.w3.org/2000/svg">
  <defs
     id="defs10">
    <inkscape:path-effect
       effect="fillet_chamfer"
       id="path-effect2493"
       is_visible="true"
       lpeversion="1"
       nodesatellites_param="F,0,0,1,0,2.6458333,0,1 @ F,0,0,1,0,2.6458333,0,1 @ F,0,0,1,0,2.6458333,0,1 @ F,0,0,1,0,2.6458333,0,1 @ F,0,0,1,0,2.6458333,0,1 @ F,0,0,1,0,2.6458333,0,1 @ F,0,0,1,0,2.6458333,0,1 @ F,0,0,1,0,2.6458333,0,1 @ F,0,0,1,0,2.6458333,0,1 @ F,0,0,1,0,2.6458333,0,1 @ F,0,0,1,0,2.6458333,0,1 @ F,0,0,1,0,2.6458333,0,1 @ F,0,0,1,0,2.6458333,0,1 @ F,0,0,1,0,2.6458333,0,1 @ F,0,0,1,0,2.6458333,0,1 @ F,0,0,1,0,2.6458333,0,1 @ F,0,0,1,0,2.6458333,0,1 | F,0,0,1,0,2.6458333,0,1 @ F,0,0,1,0,2.6458333,0,1 @ F,0,0,1,0,2.6458333,0,1 @ F,0,0,1,0,2.6458333,0,1 @ F,0,0,1,0,2.6458333,0,1 @ F,0,0,1,0,2.6458333,0,1 @ F,0,0,1,0,2.6458333,0,1 @ F,0,0,1,0,2.6458333,0,1 @ F,0,0,1,0,2.6458333,0,1 @ F,0,0,1,0,2.6458333,0,1 @ F,0,0,1,0,2.6458333,0,1 @ F,0,0,1,0,2.6458333,0,1 @ F,0,0,1,0,2.6458333,0,1 @ F,0,0,1,0,2.6458333,0,1 @ F,0,0,1,0,2.6458333,0,1 @ F,0,0,1,0,2.6458333,0,1 @ F,0,0,1,0,2.6458333,0,1 @ F,0,0,1,0,2.6458333,0,1 @ F,0,0,1,0,2.6458333,0,1 @ F,0,0,1,0,2.6458333,0,1 @ F,0,0,1,0,2.6458333,0,1"
       unit="px"
       method="auto"
       mode="F"
       radius="10"
       chamfer_steps="1"
       flexible="false"
       use_knot_distance="true"
       apply_no_radius="true"
       apply_with_radius="true"
       only_selected="false"
       hide_knots="false" />
    <inkscape:path-effect
       effect="fillet_chamfer"
       id="path-effect2491"
       is_visible="true"
       lpeversion="1"
       nodesatellites_param="F,0,0,1,0,0,0,1 @ F,0,0,1,0,2.6458333,0,1 @ F,0,0,1,0,2.6458333,0,1 @ F,0,0,1,0,2.6458333,0,1 @ F,0,0,1,0,2.6458333,0,1 @ F,0,0,1,0,2.6458333,0,1 @ F,0,0,1,0,2.6458333,0,1 @ F,0,0,1,0,2.6458333,0,1 @ F,0,0,1,0,2.6458333,0,1 @ F,0,0,1,0,2.6458333,0,1 @ F,0,0,1,0,2.6458333,0,1 @ F,0,0,1,0,2.6458333,0,1 @ F,0,0,1,0,2.6458333,0,1 @ F,0,0,1,0,2.6458333,0,1 @ F,0,0,1,0,2.6458333,0,1 @ F,0,0,1,0,2.6458333,0,1 @ F,0,0,1,0,2.6458333,0,1 @ F,0,0,1,0,2.6458333,0,1 @ F,0,0,1,0,2.6458333,0,1 @ F,0,0,1,0,2.6458333,0,1 @ F,0,0,1,0,0,0,1"
       unit="px"
       method="auto"
       mode="F"
       radius="10"
       chamfer_steps="1"
       flexible="false"
       use_knot_distance="true"
       apply_no_radius="true"
       apply_with_radius="true"
       only_selected="false"
       hide_knots="false" />
  </defs>
  <sodipodi:namedview
     id="namedview8"
     pagecolor="#505050"
     bordercolor="#eeeeee"
     borderopacity="1"
     inkscape:showpageshadow="0"
     inkscape:pageopacity="0"
     inkscape:pagecheckerboard="0"
     inkscape:deskcolor="#505050"
     inkscape:document-units="mm"
     showgrid="false"
     inkscape:zoom="1.1814777"
     inkscape:cx="248.41771"
     inkscape:cy="179.4363"
     inkscape:window-width="1920"
     inkscape:window-height="1009"
     inkscape:window-x="-8"
     inkscape:window-y="115"
     inkscape:window-maximized="1"
     inkscape:current-layer="svg6" />
  <path
     id="path2"
     d="M 110.40609,0.02983976 C 83.765303,0.41233925 58.333901,3.2954972 42.349356,9.7915263 40.995737,10.34163 38.848514,11.350092 37.594574,12.099202 30.356565,16.423227 8.6587404,32.618659 7.7192951,71.806887 c -0.035014,1.460598 -0.031374,3.829801 -0.035035,5.291049 -0.025013,9.983897 -0.1668731,21.522109 0.081514,33.728044 0.029713,1.46012 0.087837,3.82791 0.1309276,5.28853 1.3647114,46.2586 9.2437991,91.28018 50.6837481,103.92584 1.397544,0.42647 3.689311,1.02929 5.106813,1.38414 18.175237,4.54989 34.000199,5.72804 47.093737,5.24741 1.46025,-0.0536 3.82605,-0.184 5.28328,-0.29206 18.14889,-1.34574 30.26099,-5.785 35.11839,-7.88582 1.34056,-0.57979 2.34153,-2.3042 2.27517,-3.76394 l -0.60801,-13.37335 c -0.0664,-1.45974 -1.25334,-2.29674 -2.66507,-1.91984 -5.41676,1.44614 -18.82481,4.54628 -33.82784,4.42088 -1.46094,-0.0122 -3.82871,-0.0949 -5.28882,-0.15277 -18.892973,-0.74843 -38.043545,-3.00973 -42.27466,-24.60329 -0.28093,-1.43373 -0.594132,-3.78455 -0.711648,-5.24088 -0.04681,-0.58007 -0.08406,-1.16889 -0.111755,-1.76588 -0.06771,-1.45955 1.092254,-2.37031 2.520709,-2.06259 5.923274,1.27599 21.443748,4.28951 40.293064,5.35503 1.45773,0.0824 3.82354,0.19159 5.28414,0.23458 13.65726,0.40198 26.61095,-0.92581 39.68841,-2.46687 1.451,-0.17098 3.80406,-0.44811 5.2489,-0.66609 25.80499,-3.89316 48.06186,-19.2255 52.96647,-33.98597 0.46045,-1.38574 0.90287,-3.71896 1.15551,-5.15819 3.65703,-20.83338 4.00766,-47.8069 4.02262,-56.248751 0.003,-1.460241 -0.004,-3.828777 -0.039,-5.289575 -0.93952,-39.188353 -22.63645,-55.38363 -29.87382,-59.70745 -1.25375,-0.74903 -3.40081,-1.757478 -4.75444,-2.3075678 -15.985,-6.4960194 -41.43113,-9.37917132 -68.07286,-9.76166723 -1.46109,-0.020977 -2.96456,-0.02977435868 -3.35796,-0.02977435868 z M 82.885289,38.514662 c 9.833277,0.582987 17.564811,4.478947 23.095241,11.688674 0.88916,1.159142 2.13362,3.177419 2.88231,4.432299 l 3.16797,5.309833 a 1.5785619,1.5785619 179.99998 0 0 2.71124,-10e-7 l 3.16796,-5.309831 c 0.74869,-1.254881 1.99306,-3.273219 2.88213,-4.432422 5.52963,-7.209711 13.26122,-11.105635 23.09544,-11.688567 1.45848,-0.08645 3.83031,-0.08675 5.28849,0.0041 8.28609,0.516511 15.20687,3.497556 20.7844,8.843151 1.05472,1.010855 2.62555,2.790126 3.49463,3.964374 4.70368,6.355324 7.23801,14.458328 7.61806,24.298053 0.0564,1.460074 0.0503,3.829771 0.0503,5.291024 v 54.273556 a 2.6458333,2.6458333 135 0 1 -2.64583,2.64583 h -18.30748 a 2.6458333,2.6458333 45 0 1 -2.64583,-2.64583 l 0,-52.523216 c 0,-1.461253 0.0127,-3.832152 -0.0867,-5.289733 -0.64308,-9.423703 -4.86195,-14.652782 -12.65758,-15.579657 -1.45018,-0.172423 -3.82944,-0.170787 -5.28055,-0.0057 -8.92845,1.015489 -13.70597,7.402772 -14.31624,19.058447 -0.0764,1.459089 -0.067,3.829263 -0.067,5.290516 V 112.4936 a 2.6458333,2.6458333 135 0 1 -2.64583,2.64583 h -18.16787 a 2.6458333,2.6458333 45 0 1 -2.64583,-2.64583 V 86.139565 c 0,-1.461253 0.009,-3.831428 -0.067,-5.290515 -0.61045,-11.65569 -5.38929,-18.042976 -14.317991,-19.058452 -1.451119,-0.165039 -3.830371,-0.166677 -5.280559,0.0057 -7.795627,0.926875 -12.014491,6.155954 -12.657573,15.579658 -0.09947,1.457581 -0.08674,3.828479 -0.08674,5.289732 v 52.523216 a 2.6458333,2.6458333 135 0 1 -2.645833,2.64583 H 48.293441 a 2.6458333,2.6458333 45 0 1 -2.645833,-2.64583 V 80.915394 c 0,-1.461253 -0.0061,-3.83095 0.05031,-5.291024 0.380124,-9.839811 2.914968,-17.942871 7.619659,-24.29822 0.869198,-1.17416 2.440032,-2.953429 3.494679,-3.964354 5.576757,-5.345565 12.497574,-8.326567 20.784546,-8.843022 1.458188,-0.09088 3.830013,-0.09058 5.288492,-0.0041 z"
     style="fill:#2b90d9;fill-opacity:1;stroke-width:0.977422"
     inkscape:path-effect="#path-effect2493"
     inkscape:original-d="M 113.05175,6.4611319e-5 C 84.060241,0.23708951 56.172589,3.3765254 39.920528,10.840353 c 0,0 -32.232723,14.418169 -32.232723,63.611753 0,11.264772 -0.2189502,24.733735 0.1378073,39.017524 1.1704622,48.10864 8.8194577,95.52202 53.2994297,107.29505 20.50873,5.42835 38.117825,6.56564 52.298978,5.78615 25.71716,-1.42582 40.15398,-9.17765 40.15398,-9.17765 l -0.84833,-18.65955 c 0,0 -18.37807,5.79434 -39.01751,5.08816 -20.448858,-0.70131 -42.036806,-2.20475 -45.344152,-27.31101 -0.305444,-2.20531 -0.458166,-4.5642 -0.458166,-7.04073 0,0 20.074357,4.90692 45.514178,6.0725 15.55565,0.71351 30.14288,-0.91131 44.95935,-2.6792 28.41363,-3.39288 53.15377,-20.90001 56.26321,-36.89673 4.89931,-25.19912 4.49575,-61.494514 4.49575,-61.494514 0,-49.193584 -32.23093,-63.611753 -32.23093,-63.611753 C 170.66056,3.3765254 142.75558,0.23708951 113.76406,6.4611319e-5 Z M 80.240961,38.43772 c 12.076035,0 21.219709,4.641479 27.266259,13.925753 l 5.87921,9.854157 5.8792,-9.854157 c 6.04535,-9.284274 15.18902,-13.925753 27.26628,-13.925753 10.43641,0 18.84552,3.668808 25.26717,10.825973 6.22492,7.157161 9.32438,16.832094 9.32438,29.005868 V 137.83478 H 157.52432 V 80.019901 c 0,-12.187214 -5.12756,-18.373189 -15.38437,-18.373189 -11.34052,0 -17.02376,7.337212 -17.02376,21.84702 V 115.13943 H 101.65666 V 83.493732 c 0,-14.509808 -5.685007,-21.84702 -17.025535,-21.84702 -10.256808,0 -15.384369,6.185975 -15.384369,18.373189 V 137.83478 H 45.647608 V 78.269561 c 0,-12.173774 3.100021,-21.848707 9.326191,-29.005868 C 61.394232,42.106528 69.803328,38.43772 80.240961,38.43772 Z" />
  <path
     fill="#ffffff"
     d="m 181.12346,78.269522 v 56.919458 a 2.6458333,2.6458333 135 0 1 -2.64583,2.64583 h -18.30696 a 2.6458333,2.6458333 45 0 1 -2.64583,-2.64583 l 0,-52.522825 c 0,-1.461253 0.0127,-3.832152 -0.0868,-5.289733 -0.64311,-9.423698 -4.86214,-14.652695 -12.65782,-15.579552 -1.45018,-0.172418 -3.82944,-0.170784 -5.28055,-0.0057 -8.92853,1.015585 -13.70639,7.403456 -14.3167,19.059243 -0.0764,1.459088 -0.067,3.829263 -0.067,5.290516 v 26.353576 a 2.6458333,2.6458333 135 0 1 -2.64583,2.64583 h -18.16768 a 2.6458333,2.6458333 45 0 1 -2.64583,-2.64583 V 86.140904 c 0,-1.461253 0.009,-3.831428 -0.067,-5.290515 -0.61044,-11.655799 -5.38923,-18.043671 -14.317933,-19.059247 -1.451116,-0.165054 -3.830369,-0.16669 -5.280557,0.0057 -7.795672,0.926857 -12.014707,6.155855 -12.657817,15.579553 -0.09947,1.457581 -0.08675,3.828479 -0.08675,5.289732 v 52.522825 a 2.6458333,2.6458333 135 0 1 -2.645833,2.64583 H 48.293767 a 2.6458333,2.6458333 45 0 1 -2.645833,-2.64583 V 80.915355 c 0,-1.461253 -0.0061,-3.83095 0.0503,-5.291024 0.380082,-9.839706 2.914659,-17.942122 7.619291,-24.297345 0.869203,-1.174157 2.440037,-2.953425 3.494672,-3.964363 5.576642,-5.345588 12.496886,-8.326716 20.783747,-8.843198 1.458188,-0.09088 3.830013,-0.09058 5.288492,-0.0041 9.833457,0.582988 17.565964,4.478993 23.096594,11.68875 0.88917,1.159127 2.13357,3.177446 2.88217,4.432378 l 3.16705,5.309121 a 1.578478,1.578478 0.00261591 0 0 2.71113,1.24e-4 l 3.16785,-5.309369 c 0.74871,-1.254864 1.99311,-3.273189 2.8822,-4.432381 5.52979,-7.209738 13.26236,-11.105705 23.09676,-11.688638 1.45848,-0.08645 3.83031,-0.08675 5.28849,0.0042 9.22189,0.574883 16.75205,4.202618 22.62217,10.745089 6.22496,7.15717 9.32461,16.831201 9.32461,29.00499"
     id="path4-6"
     style="display:inline;fill:#ffffff;fill-opacity:0.7;stroke-width:0.977422"
     inkscape:path-effect="#path-effect2491"
     inkscape:original-d="M 181.12346,78.269522 V 137.83481 H 157.52484 V 80.020322 c 0,-12.187221 -5.1278,-18.37308 -15.38462,-18.37308 -11.34053,0 -17.02423,7.337994 -17.02423,21.847829 V 115.14031 H 101.65665 V 83.495071 c 0,-14.509835 -5.68494,-21.847829 -17.025475,-21.847829 -10.256819,0 -15.384617,6.185859 -15.384617,18.37308 V 137.83481 H 45.647934 V 78.269522 c 0,-12.173789 3.099648,-21.84782 9.325823,-29.00499 6.420439,-7.157171 14.828709,-10.826166 25.266351,-10.826166 12.076044,0 21.221042,4.641531 27.267632,13.925814 l 5.87797,9.853633 5.87919,-9.853633 c 6.04535,-9.284283 15.19035,-13.925814 27.26762,-13.925814 10.4364,0 18.84468,3.668995 25.26633,10.826166 6.22496,7.15717 9.32461,16.831201 9.32461,29.00499" />
</svg>
