<?xml version="1.0" encoding="UTF-8" standalone="no"?>
<svg
   viewBox="0 0 64 64"
   version="1.1"
   id="svg5976"
   sodipodi:docname="patreon_colorful.svg"
   width="64"
   height="64"
   inkscape:version="1.2 (dc2aedaf03, 2022-05-15)"
   xmlns:inkscape="http://www.inkscape.org/namespaces/inkscape"
   xmlns:sodipodi="http://sodipodi.sourceforge.net/DTD/sodipodi-0.dtd"
   xmlns="http://www.w3.org/2000/svg"
   xmlns:svg="http://www.w3.org/2000/svg">
  <defs
     id="defs5980">
    <inkscape:path-effect
       effect="fillet_chamfer"
       id="path-effect6099"
       is_visible="true"
       lpeversion="1"
       nodesatellites_param="F,0,0,1,0,2,0,1 @ F,0,0,1,0,2,0,1 @ F,0,0,1,0,2,0,1 @ F,0,0,1,0,2,0,1"
       unit="px"
       method="auto"
       mode="F"
       radius="2"
       chamfer_steps="1"
       flexible="false"
       use_knot_distance="true"
       apply_no_radius="true"
       apply_with_radius="true"
       only_selected="false"
       hide_knots="false" />
  </defs>
  <sodipodi:namedview
     id="namedview5978"
     pagecolor="#505050"
     bordercolor="#eeeeee"
     borderopacity="1"
     inkscape:showpageshadow="0"
     inkscape:pageopacity="0"
     inkscape:pagecheckerboard="0"
     inkscape:deskcolor="#505050"
     showgrid="false"
     inkscape:zoom="5.6568543"
     inkscape:cx="-20.240931"
     inkscape:cy="2.4748737"
     inkscape:window-width="1920"
     inkscape:window-height="1009"
     inkscape:window-x="-8"
     inkscape:window-y="115"
     inkscape:window-maximized="1"
     inkscape:current-layer="svg5976" />
  <path
     fill="#f96753"
     d="m 41.030529,1.3777193 c -12.704768,0 -23.041024,10.3347197 -23.041024,23.0387197 0,12.665539 10.336256,22.97005 23.041024,22.97005 C 53.696003,47.386489 64,37.081978 64,24.416439 64,11.712439 53.696003,1.3777193 41.030529,1.3777193"
     id="path5972"
     style="stroke-width:0.48" />
  <path
     fill="#052a49"
     d="M 0,60.688001 V 3.311999 a 2,2 135 0 1 2,-2 h 7.264 a 2,2 45 0 1 2,2 v 57.376002 a 2,2 135 0 1 -2,2 H 2 a 2,2 45 0 1 -2,-2 z"
     id="path5974"
     style="stroke-width:0.48;fill:#09497f;fill-opacity:1"
     inkscape:path-effect="#path-effect6099"
     inkscape:original-d="M 0,62.688001 V 1.311999 h 11.264 v 61.376002 z" />
</svg>
