<?xml version="1.0" encoding="UTF-8" standalone="no"?>
<svg
   xml:space="preserve"
   viewBox="0 0 64 64"
   version="1.1"
   id="svg3286"
   sodipodi:docname="twitter_colorful.svg"
   width="64"
   height="64"
   inkscape:version="1.2 (dc2aedaf03, 2022-05-15)"
   xmlns:inkscape="http://www.inkscape.org/namespaces/inkscape"
   xmlns:sodipodi="http://sodipodi.sourceforge.net/DTD/sodipodi-0.dtd"
   xmlns="http://www.w3.org/2000/svg"
   xmlns:svg="http://www.w3.org/2000/svg"><defs
   id="defs3290"><inkscape:path-effect
     effect="fillet_chamfer"
     id="path-effect3772"
     is_visible="true"
     lpeversion="1"
     nodesatellites_param="F,0,0,1,0,1,0,1 @ F,0,0,1,0,1,0,1 @ F,0,0,1,0,1,0,1 @ F,0,0,1,0,1,0,1 @ F,0,0,1,0,1,0,1 @ F,0,0,1,0,1,0,1 @ F,0,0,1,0,1,0,1 @ F,0,0,1,0,1,0,1 @ F,0,0,1,0,1,0,1 @ F,0,0,1,0,1,0,1 @ F,0,0,1,0,1,0,1 @ F,0,0,1,0,1,0,1 @ F,0,0,1,0,1,0,1 @ F,0,0,1,0,1,0,1 @ F,0,0,1,0,1,0,1 @ F,0,0,1,0,1,0,1 @ F,0,0,1,0,1,0,1 @ F,0,0,1,0,1,0,1 @ F,0,0,1,0,1,0,1"
     unit="px"
     method="auto"
     mode="F"
     radius="1"
     chamfer_steps="1"
     flexible="false"
     use_knot_distance="true"
     apply_no_radius="true"
     apply_with_radius="true"
     only_selected="false"
     hide_knots="false" /></defs><sodipodi:namedview
   id="namedview3288"
   pagecolor="#505050"
   bordercolor="#eeeeee"
   borderopacity="1"
   inkscape:showpageshadow="0"
   inkscape:pageopacity="0"
   inkscape:pagecheckerboard="0"
   inkscape:deskcolor="#505050"
   showgrid="false"
   inkscape:zoom="16.215686"
   inkscape:cx="33.856106"
   inkscape:cy="35.767836"
   inkscape:window-width="1920"
   inkscape:window-height="1009"
   inkscape:window-x="-8"
   inkscape:window-y="115"
   inkscape:window-maximized="1"
   inkscape:current-layer="svg3286" />
  <path
   fill="#1d9bf0"
   d="m 57.796613,19.751136 c 0.0048,0.39975 0.0044,1.171667 -0.01141,1.723709 -0.488793,17.125037 -13.482617,36.37002 -36.90048,36.903497 -0.55213,0.01258 -0.999914,0.0066 -0.999914,7.88e-4 -7.558895,-0.176142 -13.961867,-2.049112 -19.57702732,-5.445113 -0.47256457,-0.285803 -0.40426142,-0.473376 0.14612243,-0.427984 0.39178948,0.03231 0.78419129,0.05602 1.17707059,0.07126 0.5518396,0.0214 1.447632,0.02292 1.9995168,0.0028 5.3131586,-0.194016 10.4496805,-1.968216 14.7520075,-5.094677 0.446751,-0.324649 0.349354,-0.607423 -0.20039,-0.658978 -4.95073,-0.464275 -9.2381676,-3.651947 -11.1094242,-8.257864 -0.2078467,-0.511595 0.098091,-0.850953 0.6465848,-0.787483 1.3517897,0.156426 2.7192234,0.104041 4.0543644,-0.154761 0.542065,-0.105073 0.533299,-0.312003 0.0017,-0.461293 C 6.3885514,35.652198 2.5116919,30.917259 2.095292,25.337033 2.054204,24.786408 2.058127,24.262352 2.058127,24.169086 c 2.2050492,1.060043 3.6100966,1.447717 5.0503006,1.600073 0.5490891,0.05809 0.6224552,-0.178368 0.187344,-0.518305 C 2.3514536,21.388031 0.77182995,14.571022 3.5120013,8.9268767 3.7531493,8.4301654 4.26305,8.3927078 4.6225443,8.8119507 11.152478,16.427172 20.4431,21.137477 30.446744,21.902715 c 0.550666,0.04212 0.892819,-0.372866 0.80853,-0.918551 C 30.63826,16.989591 31.867681,12.92606 34.597367,9.9458032 34.970316,9.5386204 35.623852,8.9243453 36.052991,8.576898 41.172859,4.4316544 48.5875,4.6587564 53.441592,9.1096923 53.848557,9.4828568 54.592741,9.7274852 55.130171,9.6003975 57.43765,9.0547412 59.661605,8.20366 61.745539,7.071009 c 0.485215,-0.2637221 0.735572,-0.065778 0.527325,0.4456019 -0.964273,2.3679073 -2.588111,4.4113921 -4.677608,5.8850971 -0.451219,0.318241 -0.392935,0.494777 0.152692,0.409491 1.966284,-0.30735 3.892193,-0.835167 5.740006,-1.573463 0.512831,-0.204902 0.674376,-0.01486 0.351008,0.432823 -1.493657,2.067854 -3.272017,3.911736 -5.279849,5.480364 -0.435188,0.339993 -0.769176,1.048044 -0.7625,1.600213 z"
   id="path3284"
   style="stroke-width:0.263864"
   inkscape:path-effect="#path-effect3772"
   inkscape:original-d="m 57.759952,18.751945 c 0.03957,0.572587 0.03957,1.145173 0.03957,1.723036 0,17.607688 -13.404322,37.914709 -37.914708,37.914709 V 58.37913 C 12.644376,58.38969 5.5543334,56.315713 -0.54093964,52.40524 0.51188023,52.531896 1.5699775,52.595222 2.6307132,52.597861 8.6309951,52.60318 14.459764,50.58985 19.180304,46.882554 13.478188,46.774369 8.4779535,43.056516 6.7311696,37.62882 8.7286249,38.014061 10.786769,37.934904 12.747283,37.399259 6.5306327,36.143263 2.058127,30.681264 2.058127,24.337958 V 24.169086 C 3.9104567,25.200795 5.9844328,25.773382 8.1059044,25.83671 2.2507483,21.923597 0.44591408,14.134312 3.9817002,8.0443175 10.747189,16.369246 20.72919,21.43017 31.444732,21.965816 30.370804,17.33763 31.83789,12.487797 35.299794,9.2343471 40.666799,4.1892553 49.10783,4.4478428 54.152921,9.81221 57.137231,9.2237926 59.997523,8.1287542 62.61506,6.5772302 61.62029,9.6618083 59.5384,12.281984 56.757267,13.946968 c 2.641283,-0.311359 5.22188,-1.018518 7.652073,-2.097721 -1.789001,2.680863 -4.042406,5.016065 -6.649388,6.902698 z" />
</svg>
